<svg xmlns="http://www.w3.org/2000/svg" width="112" height="96" viewBox="0 0 112 96">
  <g id="Ilustración_list_Mod._Dark" data-name="Ilustración list Mod. Dark" transform="translate(-4041 -90)">
    <g id="Ilustracion_List" data-name="Ilustracion List" transform="translate(3017 -93)">
      <g id="BG">
        <rect id="Rectángulo_121212" data-name="Rectángulo #121212" width="112" height="96" rx="2" transform="translate(1024 183)" fill="#121212"/>
        <path id="Rectángulo_121212_-_Contorno" data-name="Rectángulo #121212 - Contorno" d="M2,1A1,1,0,0,0,1,2V94a1,1,0,0,0,1,1H110a1,1,0,0,0,1-1V2a1,1,0,0,0-1-1H2M2,0H110a2,2,0,0,1,2,2V94a2,2,0,0,1-2,2H2a2,2,0,0,1-2-2V2A2,2,0,0,1,2,0Z" transform="translate(1024 183)" fill="rgba(255,255,255,0.12)"/>
        <rect id="Rectángulo_W16_" data-name="Rectángulo W16%" width="112" height="96" rx="2" transform="translate(1024 183)" fill="rgba(255,255,255,0.16)"/>
        <path id="Rectángulo_W16_-_Contorno" data-name="Rectángulo W16% - Contorno" d="M2,1A1,1,0,0,0,1,2V94a1,1,0,0,0,1,1H110a1,1,0,0,0,1-1V2a1,1,0,0,0-1-1H2M2,0H110a2,2,0,0,1,2,2V94a2,2,0,0,1-2,2H2a2,2,0,0,1-2-2V2A2,2,0,0,1,2,0Z" transform="translate(1024 183)" fill="rgba(255,255,255,0.12)"/>
        <rect id="Rectángulo_BC6_" data-name="Rectángulo BC6%" width="112" height="96" rx="2" transform="translate(1024 183)" fill="rgba(20,100,165,0.06)"/>
        <path id="Rectángulo_BC6_-_Contorno" data-name="Rectángulo BC6% - Contorno" d="M2,1A1,1,0,0,0,1,2V94a1,1,0,0,0,1,1H110a1,1,0,0,0,1-1V2a1,1,0,0,0-1-1H2M2,0H110a2,2,0,0,1,2,2V94a2,2,0,0,1-2,2H2a2,2,0,0,1-2-2V2A2,2,0,0,1,2,0Z" transform="translate(1024 183)" fill="rgba(255,255,255,0.12)"/>
      </g>
    </g>
    <g id="Grupo_3986" data-name="Grupo 3986" transform="translate(131 4)">
      <g id="item1" transform="translate(2907.091 -96)">
        <path id="Trazado_7092" data-name="Trazado 7092" d="M18899.145,195.755h-64a.755.755,0,1,1,0-1.51h64a.755.755,0,1,1,0,1.51Z" transform="translate(-17805.145 9)" fill="rgba(255,255,255,0.74)"/>
        <path id="Trazado_7091" data-name="Trazado 7091" d="M18851.145,195.755h-16a.755.755,0,1,1,0-1.51h16a.755.755,0,1,1,0,1.51Z" transform="translate(-17805.145 3)" fill="rgba(255,255,255,0.6)"/>
        <path id="Trazado_7262" data-name="Trazado 7262" d="M5,0A5,5,0,1,1,0,5,5,5,0,0,1,5,0Z" transform="translate(1014.909 195)" fill="rgba(255,255,255,0.6)"/>
      </g>
    </g>
    <g id="Grupo_3987" data-name="Grupo 3987" transform="translate(131 25)">
      <g id="item1-2" data-name="item1" transform="translate(2907.091 -97)">
        <path id="Trazado_7092-2" data-name="Trazado 7092" d="M18899.145,195.755h-64a.755.755,0,1,1,0-1.51h64a.755.755,0,1,1,0,1.51Z" transform="translate(-17805.145 9)" fill="rgba(255,255,255,0.74)"/>
        <path id="Trazado_7091-2" data-name="Trazado 7091" d="M18851.145,195.755h-16a.755.755,0,1,1,0-1.51h16a.755.755,0,1,1,0,1.51Z" transform="translate(-17805.145 3)" fill="rgba(255,255,255,0.6)"/>
        <path id="Trazado_7262-2" data-name="Trazado 7262" d="M5,0A5,5,0,1,1,0,5,5,5,0,0,1,5,0Z" transform="translate(1014.909 195)" fill="rgba(255,255,255,0.6)"/>
      </g>
    </g>
    <g id="Grupo_3988" data-name="Grupo 3988" transform="translate(131 44)">
      <g id="item1-3" data-name="item1" transform="translate(2907.091 -96)">
        <path id="Trazado_7092-3" data-name="Trazado 7092" d="M18899.145,195.755h-64a.755.755,0,1,1,0-1.51h64a.755.755,0,1,1,0,1.51Z" transform="translate(-17805.145 9)" fill="rgba(255,255,255,0.74)"/>
        <path id="Trazado_7091-3" data-name="Trazado 7091" d="M18851.145,195.755h-16a.755.755,0,1,1,0-1.51h16a.755.755,0,1,1,0,1.51Z" transform="translate(-17805.145 3)" fill="rgba(255,255,255,0.6)"/>
        <path id="Trazado_7262-3" data-name="Trazado 7262" d="M5,0A5,5,0,1,1,0,5,5,5,0,0,1,5,0Z" transform="translate(1014.909 195)" fill="rgba(255,255,255,0.6)"/>
      </g>
    </g>
    <g id="Grupo_3989" data-name="Grupo 3989" transform="translate(131 64)">
      <g id="item1-4" data-name="item1" transform="translate(2907.091 -96)">
        <path id="Trazado_7092-4" data-name="Trazado 7092" d="M18899.145,195.755h-64a.755.755,0,1,1,0-1.51h64a.755.755,0,1,1,0,1.51Z" transform="translate(-17805.145 9)" fill="rgba(255,255,255,0.74)"/>
        <path id="Trazado_7091-4" data-name="Trazado 7091" d="M18851.145,195.755h-16a.755.755,0,1,1,0-1.51h16a.755.755,0,1,1,0,1.51Z" transform="translate(-17805.145 3)" fill="rgba(255,255,255,0.6)"/>
        <path id="Trazado_7262-4" data-name="Trazado 7262" d="M5,0A5,5,0,1,1,0,5,5,5,0,0,1,5,0Z" transform="translate(1014.909 195)" fill="rgba(255,255,255,0.6)"/>
      </g>
    </g>
  </g>
</svg>
