<svg width="49" height="49" viewBox="0 0 49 49" fill="none" xmlns="http://www.w3.org/2000/svg">
<g id="icono-github-front">
<path id="Exclude" fill-rule="evenodd" clip-rule="evenodd" d="M24.7881 43.6431C36.1494 43.6431 45.3595 34.6249 45.3595 23.5003C45.3595 12.3757 36.1494 3.35742 24.7881 3.35742C13.4268 3.35742 4.21667 12.3757 4.21667 23.5003C4.21667 34.6249 13.4268 43.6431 24.7881 43.6431ZM5.42672 23.3818C5.42672 12.9262 14.0889 4.47466 24.8041 4.47466C35.4871 4.47466 44.1811 12.9262 44.1493 23.3818C44.1493 31.7396 38.5992 38.8138 30.8996 41.3186C29.9374 41.5064 29.5844 40.9114 29.5844 40.4104C29.5844 40.2027 29.5879 39.8398 29.5925 39.3548C29.6019 38.3787 29.6161 36.9082 29.6161 35.2143C29.6161 33.4299 29.0069 32.3031 28.3008 31.7084C32.6321 31.2386 37.1554 29.6424 37.1554 22.3799C37.1554 20.3139 36.4177 18.6236 35.1663 17.309C35.3586 16.8396 36.0329 14.8984 34.9739 12.3004C34.9739 12.3004 33.3378 11.7994 29.6482 14.2411C28.1081 13.8343 26.4402 13.6149 24.8041 13.6149C23.1679 13.6167 21.539 13.8273 19.9595 14.2411C16.2704 11.7994 14.6343 12.3004 14.6343 12.3004C13.5753 14.8984 14.2491 16.8396 14.4415 17.309C13.2223 18.6236 12.4528 20.3139 12.4528 22.3799C12.4528 29.6424 16.976 31.2701 21.2752 31.7084C20.7298 32.1779 20.2162 33.023 20.0559 34.2439C18.933 34.7448 16.1419 35.5585 14.4098 32.6788C14.4098 32.6788 13.3829 30.8633 11.4259 30.7381C11.4259 30.7381 9.53312 30.7381 11.2974 31.8963C11.2974 31.8963 12.5809 32.4595 13.4471 34.6507C13.4471 34.6507 14.5696 38.0317 19.9599 36.9046C19.9599 37.9283 19.9735 38.9251 19.9829 39.615C19.9879 39.98 19.9917 40.2591 19.9917 40.4108C19.9917 40.9114 19.6391 41.5064 18.6764 41.3182C10.9769 38.8142 5.42672 31.7396 5.42672 23.3818Z" fill="#000000BD"/>
</g>
</svg>
