<svg width="120" height="90" viewBox="0 0 120 90" fill="none" xmlns="http://www.w3.org/2000/svg">
<rect width="120" height="90" fill="#363B3F"/>
<rect x="0.5" y="0.5" width="119" height="89" stroke="white" stroke-opacity="0.12"/>
<path d="M43.6215 25.5V24.5393C43.6215 20.5765 46.8605 17.3284 50.8324 17.3284H68.3848C70.4386 17.3284 72.3024 18.1969 73.6143 19.5903" stroke="#C8CACB" stroke-width="0.904762" stroke-miterlimit="10"/>
<path d="M43.6215 29.5V63.8061C43.6215 67.778 46.8605 71.0261 50.8324 71.0261H57.5004" stroke="#C8CACB" stroke-width="0.904762" stroke-miterlimit="10" stroke-linejoin="bevel"/>
<path d="M62.0017 70.5476C61.7519 70.5466 61.5485 70.7483 61.5475 70.9982C61.5465 71.248 61.7482 71.4514 61.9981 71.4524L62.0017 70.5476ZM68.3848 71.0258L68.383 71.4782H68.3848V71.0258ZM61.9981 71.4524L68.383 71.4782L68.3867 70.5734L62.0017 70.5476L61.9981 71.4524ZM68.3848 71.4782C72.2704 71.4782 75.4328 68.2545 75.9479 64.5625L75.0518 64.4375C74.5899 67.7483 71.7555 70.5734 68.3848 70.5734V71.4782Z" fill="#C8CACB"/>
<path d="M76 55L76 28" stroke="#C8CACB" stroke-width="0.904762" stroke-miterlimit="10"/>
<path d="M66.3491 60.9923H46.942V27.3623H68.1224" stroke="white" stroke-opacity="0.74" stroke-width="0.904762" stroke-miterlimit="10"/>
<path d="M72.2753 54.9305V30.8005" stroke="#C8CACB" stroke-width="0.904762" stroke-miterlimit="10"/>
<g opacity="0.74">
<path d="M68.6562 35.1704H50.5609V36.0752H68.6562V35.1704Z" fill="white" fill-opacity="0.74"/>
<path d="M50.8821 35.754V35.4916H68.335V35.754H50.8821Z" stroke="white" stroke-opacity="0.74" stroke-width="0.642381" stroke-miterlimit="10"/>
</g>
<g opacity="0.74">
<path d="M68.6562 42.9788H50.5609V43.8835H68.6562V42.9788Z" fill="white" fill-opacity="0.74"/>
<path d="M50.8821 43.5623V43.3H68.335V43.5623H50.8821Z" stroke="white" stroke-opacity="0.74" stroke-width="0.642381" stroke-miterlimit="10"/>
</g>
<g opacity="0.74">
<path d="M68.6562 50.1531H50.5609V51.0578H68.6562V50.1531Z" fill="white" fill-opacity="0.74"/>
<path d="M50.8821 50.7366V50.4743H68.335V50.7366H50.8821Z" stroke="white" stroke-opacity="0.74" stroke-width="0.642381" stroke-miterlimit="10"/>
</g>
<path d="M43.111 25.8674L43.4944 25.4126C43.9994 25.9712 44.3834 26.4696 44.6334 26.9111C44.8885 27.362 45.0148 27.7425 45.0148 28.0768C45.0148 28.4757 44.8651 28.8269 44.555 29.137C44.253 29.439 43.8924 29.5968 43.4948 29.5968C43.1273 29.5968 42.8004 29.4697 42.5087 29.2073L42.4451 29.1388C42.16 28.8317 42.0201 28.4775 42.0201 28.0768C42.0201 27.7864 42.1377 27.4225 42.3723 26.9706L42.4182 26.8824V26.8766C42.6618 26.4698 42.8928 26.1325 43.111 25.8674Z" fill="#2D3236" stroke="#C8CACB" stroke-width="0.814286"/>
<path d="M33.815 17.7947L33.8164 17.7933L33.8168 17.793L34.9202 16.7257L34.9204 16.7255L34.9221 16.7238L41.6571 23.495C41.8916 23.7373 42.011 24.0094 42.011 24.3135C42.011 24.6216 41.8983 24.8754 41.6638 25.0897L41.6571 25.0959L41.6507 25.1023L37.5092 29.2438C37.2688 29.4762 36.9794 29.5973 36.691 29.5973C36.4086 29.5973 36.1462 29.4811 35.9112 29.2461L35.91 29.2449L31.724 25.0951C31.5158 24.879 31.4071 24.5954 31.4071 24.2773C31.4071 23.9645 31.5122 23.7076 31.7222 23.4976L35.0443 20.1755L35.3322 19.8876L35.3412 19.8786L35.3412 19.8786L35.0533 19.5907L35.3322 19.3118L33.815 17.7947Z" fill="#2D3236" stroke="#C8CACB" stroke-width="0.814286"/>
<path opacity="0.74" d="M36.691 21.228L39.351 23.8699H34.0491L36.691 21.228Z" fill="#C8CACB"/>
<path d="M86.5237 17.5564L85.8286 16.8614V16.863L81.4148 12.4023L81.4146 12.4022L81.4208 12.396L82.6694 11.1474C83.1632 10.6536 83.7052 10.4071 84.3719 10.4071C85.048 10.4071 85.6329 10.6515 86.1288 11.1474L87.8298 12.8484C88.2811 13.2997 88.5067 13.8718 88.5067 14.551C88.5067 15.2301 88.2811 15.8022 87.8298 16.2535L86.5269 17.5564L86.5253 17.558L86.5237 17.5564Z" fill="#2D3236" stroke="#C8CACB" stroke-width="0.814286"/>
<path d="M68.5204 25.281V25.2777L79.6474 14.0965L79.6481 14.0958L79.649 14.0948L79.6506 14.0965L84.8168 19.2627L84.8185 19.2643L84.8168 19.2659L73.6899 30.3929H73.6866H68.5204V25.281Z" fill="#2D3236" stroke="#C8CACB" stroke-width="0.814286"/>
<path d="M66.7472 54.9304H66.34V62.5757C66.34 63.1728 66.5753 63.7066 67.0095 64.1409C67.4438 64.5752 67.9776 64.8104 68.5748 64.8104H79.8843V54.9214H66.7472V54.9304Z" fill="#2D3236"/>
<path d="M66.7472 55.3304H67.1472V55.3214H79.4843V64.4104H68.5748C68.0918 64.4104 67.6576 64.2233 67.2924 63.8581C66.9272 63.4929 66.74 63.0586 66.74 62.5757V55.3304H66.7472Z" stroke="white" stroke-opacity="0.87" stroke-width="0.8"/>
<path d="M74.7546 59.3728L76.8446 62.1685H72.6104L72.8275 61.888L74.7546 59.3728Z" fill="white" fill-opacity="0.74"/>
<path d="M72.1938 61.9063L72.411 62.1687H69.4162L70.8548 60.332L72.1938 61.9063Z" fill="white" fill-opacity="0.74"/>
<path d="M57.9618 71.8324L57.3986 71.4554C56.4267 70.8048 55.7904 69.7025 55.7904 68.4476C55.7904 66.4454 57.4073 64.8285 59.4095 64.8285C61.4116 64.8285 63.0285 66.4454 63.0285 68.4476C63.0285 69.7025 62.3922 70.8048 61.4203 71.4554L60.8571 71.8324V72.4285H61.0453C61.2349 72.4285 61.4119 72.4687 61.5739 72.5354L61.5859 72.5403L61.5974 72.5461L64.8733 74.1768C65.3839 74.3946 65.7428 74.9127 65.7428 75.5047C65.7428 75.5747 65.7322 75.6481 65.7258 75.6926C65.7254 75.6953 65.7251 75.698 65.7247 75.7005L57.9618 71.8324ZM57.9618 71.8324V75.775C57.8945 75.7608 57.8292 75.747 57.766 75.7336C56.8787 75.5462 56.3962 75.4443 56.1264 75.389C55.81 75.3242 55.7585 75.3165 55.6674 75.3165C55.3402 75.3165 55.0473 75.4537 54.8396 75.6614L54.838 75.663L54.2662 76.242L54.0135 76.4979L54.2678 76.7522L57.8435 80.3279C58.1038 80.5882 58.4697 80.7523 58.8666 80.7523H63.7813C64.5191 80.7523 65.0776 80.207 65.1814 79.5179L65.1818 79.5149L65.7247 75.7007L57.9618 71.8324Z" fill="#2D3236" stroke="#C8CACB" stroke-width="0.72381"/>
</svg>
