<svg xmlns="http://www.w3.org/2000/svg" width="112" height="96" viewBox="0 0 112 96">
  <g id="Ilustración_List" data-name="Ilustración List" transform="translate(-3917 -90)">
    <g id="Ilustracion_List" data-name="Ilustracion List" transform="translate(2893 -93)">
      <rect id="Rectángulo_6422" data-name="Rectángulo 6422" width="112" height="96" rx="2" transform="translate(1024 183)" fill="#fff"/>
      <path id="Rectángulo_6422_-_Contorno" data-name="Rectángulo 6422 - Contorno" d="M2,1A1,1,0,0,0,1,2V94a1,1,0,0,0,1,1H110a1,1,0,0,0,1-1V2a1,1,0,0,0-1-1H2M2,0H110a2,2,0,0,1,2,2V94a2,2,0,0,1-2,2H2a2,2,0,0,1-2-2V2A2,2,0,0,1,2,0Z" transform="translate(1024 183)" fill="rgba(0,0,0,0.12)"/>
    </g>
    <g id="Grupo_3982" data-name="Grupo 3982" transform="translate(7 4)">
      <g id="item1" transform="translate(2907.091 -96)">
        <path id="Trazado_7092" data-name="Trazado 7092" d="M18899.145,195.755h-64a.755.755,0,1,1,0-1.51h64a.755.755,0,1,1,0,1.51Z" transform="translate(-17805.145 9)" fill="rgba(0,0,0,0.74)"/>
        <path id="Trazado_7091" data-name="Trazado 7091" d="M18851.145,195.755h-16a.755.755,0,1,1,0-1.51h16a.755.755,0,1,1,0,1.51Z" transform="translate(-17805.145 3)" fill="rgba(0,0,0,0.6)"/>
        <path id="Trazado_7262" data-name="Trazado 7262" d="M5,0A5,5,0,1,1,0,5,5,5,0,0,1,5,0Z" transform="translate(1014.909 195)" fill="rgba(0,0,0,0.6)"/>
      </g>
    </g>
    <g id="Grupo_3983" data-name="Grupo 3983" transform="translate(7 24)">
      <g id="item1-2" data-name="item1" transform="translate(2907.091 -96)">
        <path id="Trazado_7092-2" data-name="Trazado 7092" d="M18899.145,195.755h-64a.755.755,0,1,1,0-1.51h64a.755.755,0,1,1,0,1.51Z" transform="translate(-17805.145 9)" fill="rgba(0,0,0,0.74)"/>
        <path id="Trazado_7091-2" data-name="Trazado 7091" d="M18851.145,195.755h-16a.755.755,0,1,1,0-1.51h16a.755.755,0,1,1,0,1.51Z" transform="translate(-17805.145 3)" fill="rgba(0,0,0,0.6)"/>
        <path id="Trazado_7262-2" data-name="Trazado 7262" d="M5,0A5,5,0,1,1,0,5,5,5,0,0,1,5,0Z" transform="translate(1014.909 195)" fill="rgba(0,0,0,0.6)"/>
      </g>
    </g>
    <g id="Grupo_3984" data-name="Grupo 3984" transform="translate(7 44)">
      <g id="item1-3" data-name="item1" transform="translate(2907.091 -96)">
        <path id="Trazado_7092-3" data-name="Trazado 7092" d="M18899.145,195.755h-64a.755.755,0,1,1,0-1.51h64a.755.755,0,1,1,0,1.51Z" transform="translate(-17805.145 9)" fill="rgba(0,0,0,0.74)"/>
        <path id="Trazado_7091-3" data-name="Trazado 7091" d="M18851.145,195.755h-16a.755.755,0,1,1,0-1.51h16a.755.755,0,1,1,0,1.51Z" transform="translate(-17805.145 3)" fill="rgba(0,0,0,0.6)"/>
        <path id="Trazado_7262-3" data-name="Trazado 7262" d="M5,0A5,5,0,1,1,0,5,5,5,0,0,1,5,0Z" transform="translate(1014.909 195)" fill="rgba(0,0,0,0.6)"/>
      </g>
    </g>
    <g id="Grupo_3985" data-name="Grupo 3985" transform="translate(7 60)">
      <g id="item1-4" data-name="item1" transform="translate(2907.091 -92)">
        <path id="Trazado_7092-4" data-name="Trazado 7092" d="M18899.145,195.755h-64a.755.755,0,1,1,0-1.51h64a.755.755,0,1,1,0,1.51Z" transform="translate(-17805.145 9)" fill="rgba(0,0,0,0.74)"/>
        <path id="Trazado_7091-4" data-name="Trazado 7091" d="M18851.145,195.755h-16a.755.755,0,1,1,0-1.51h16a.755.755,0,1,1,0,1.51Z" transform="translate(-17805.145 3)" fill="rgba(0,0,0,0.6)"/>
        <path id="Trazado_7262-4" data-name="Trazado 7262" d="M5,0A5,5,0,1,1,0,5,5,5,0,0,1,5,0Z" transform="translate(1014.909 195)" fill="rgba(0,0,0,0.6)"/>
      </g>
    </g>
  </g>
</svg>
