<svg width="96" height="78" viewBox="0 0 96 78" fill="none" xmlns="http://www.w3.org/2000/svg">
<mask id="path-1-inside-1_148_617" fill="white">
<path d="M0 0H95.2579V15.7383H0V0Z"/>
</mask>
<path d="M0 0H95.2579V15.7383H0V0Z" fill="#121212"/>
<path d="M0 0H95.2579V15.7383H0V0Z" fill="white" fill-opacity="0.16"/>
<path d="M0 0H95.2579V15.7383H0V0Z" fill="#1464A5" fill-opacity="0.06"/>
<path d="M95.2579 14.9099H0V16.5666H95.2579V14.9099Z" fill="white" fill-opacity="0.6" mask="url(#path-1-inside-1_148_617)"/>
<path d="M4 9.52588H20" stroke="white" stroke-opacity="0.6" stroke-width="1.51" stroke-linecap="round"/>
<mask id="path-4-inside-2_148_617" fill="white">
<path d="M0 24.9316H95.2579V40.6699H0V24.9316Z"/>
</mask>
<path d="M0 24.9316H95.2579V40.6699H0V24.9316Z" fill="#121212"/>
<path d="M0 24.9316H95.2579V40.6699H0V24.9316Z" fill="white" fill-opacity="0.16"/>
<path d="M0 24.9316H95.2579V40.6699H0V24.9316Z" fill="#1464A5" fill-opacity="0.06"/>
<path d="M95.2579 39.8416H0V41.4982H95.2579V39.8416Z" fill="white" fill-opacity="0.6" mask="url(#path-4-inside-2_148_617)"/>
<path d="M4 34.4575H20" stroke="white" stroke-opacity="0.6" stroke-width="1.51" stroke-linecap="round"/>
<path d="M86.8864 33.8642H91.7334L89.3099 36.2877L86.8864 33.8642Z" fill="white" fill-opacity="0.6"/>
<mask id="path-8-inside-3_148_617" fill="white">
<path d="M0 48.9316H95.2579V77.9232H0V48.9316Z"/>
</mask>
<path d="M0 48.9316H95.2579V77.9232H0V48.9316Z" fill="#121212"/>
<path d="M0 48.9316H95.2579V77.9232H0V48.9316Z" fill="white" fill-opacity="0.16"/>
<path d="M0 48.9316H95.2579V77.9232H0V48.9316Z" fill="#1464A5" fill-opacity="0.06"/>
<path d="M95.2579 77.0949H0V78.7515H95.2579V77.0949Z" fill="white" fill-opacity="0.6" mask="url(#path-8-inside-3_148_617)"/>
<path d="M4 55.5583H20" stroke="white" stroke-opacity="0.6" stroke-width="1.51" stroke-linecap="round"/>
<path d="M89.6758 74.3137L90.3529 74.9917L92.6289 72.7157L91.9509 72.0377L89.6758 74.3137ZM87.0623 74.0225L87.7403 74.7006L92.3397 70.1012L91.6597 69.4251L87.0623 74.0225ZM84.6289 73.7731L85.307 74.4512L92.0884 67.6697L91.4103 66.9917L84.6289 73.7731Z" fill="white" fill-opacity="0.6"/>
</svg>
