<svg xmlns="http://www.w3.org/2000/svg" width="112" height="96" viewBox="0 0 112 96">
  <g id="Ilustracion_GRID" data-name="Ilustracion GRID" transform="translate(-1024 -183)">
    <g id="BG">
      <rect id="Rectángulo_121212" data-name="Rectángulo #121212" width="112" height="96" rx="2" transform="translate(1024 183)" fill="#121212"/>
      <path id="Rectángulo_121212_-_Contorno" data-name="Rectángulo #121212 - Contorno" d="M2,1A1,1,0,0,0,1,2V94a1,1,0,0,0,1,1H110a1,1,0,0,0,1-1V2a1,1,0,0,0-1-1H2M2,0H110a2,2,0,0,1,2,2V94a2,2,0,0,1-2,2H2a2,2,0,0,1-2-2V2A2,2,0,0,1,2,0Z" transform="translate(1024 183)" fill="rgba(255,255,255,0.12)"/>
      <rect id="W16_" data-name="W16%" width="112" height="96" rx="2" transform="translate(1024 183)" fill="rgba(255,255,255,0.16)"/>
      <path id="W16_-_Contorno" data-name="W16% - Contorno" d="M2,1A1,1,0,0,0,1,2V94a1,1,0,0,0,1,1H110a1,1,0,0,0,1-1V2a1,1,0,0,0-1-1H2M2,0H110a2,2,0,0,1,2,2V94a2,2,0,0,1-2,2H2a2,2,0,0,1-2-2V2A2,2,0,0,1,2,0Z" transform="translate(1024 183)" fill="rgba(255,255,255,0.12)"/>
      <rect id="BC6_" data-name="BC6%" width="112" height="96" rx="2" transform="translate(1024 183)" fill="rgba(20,100,165,0.06)"/>
      <path id="BC6_-_Contorno" data-name="BC6% - Contorno" d="M2,1A1,1,0,0,0,1,2V94a1,1,0,0,0,1,1H110a1,1,0,0,0,1-1V2a1,1,0,0,0-1-1H2M2,0H110a2,2,0,0,1,2,2V94a2,2,0,0,1-2,2H2a2,2,0,0,1-2-2V2A2,2,0,0,1,2,0Z" transform="translate(1024 183)" fill="rgba(255,255,255,0.12)"/>
    </g>
    <g id="Grupo_3900" data-name="Grupo 3900" transform="translate(0 2.5)">
      <path id="Trazado_7084" data-name="Trazado 7084" d="M18861.145,195.755h-26a.755.755,0,1,1,0-1.51h26a.755.755,0,1,1,0,1.51Z" transform="translate(-17803.145 23.5)" fill="rgba(255,255,255,0.74)"/>
    </g>
    <g id="Grupo_3980" data-name="Grupo 3980" transform="translate(0 46.5)">
      <path id="Trazado_7084-2" data-name="Trazado 7084" d="M18861.145,195.755h-26a.755.755,0,1,1,0-1.51h26a.755.755,0,1,1,0,1.51Z" transform="translate(-17803.145 23.5)" fill="rgba(255,255,255,0.74)"/>
    </g>
    <g id="Grupo_3948" data-name="Grupo 3948" transform="translate(70 2.5)">
      <path id="Trazado_7084-3" data-name="Trazado 7084" d="M18861.145,195.755h-26a.755.755,0,1,1,0-1.51h26a.755.755,0,1,1,0,1.51Z" transform="translate(-17803.145 23.5)" fill="rgba(255,255,255,0.74)"/>
    </g>
    <g id="Grupo_3976" data-name="Grupo 3976" transform="translate(70 46.5)">
      <path id="Trazado_7084-4" data-name="Trazado 7084" d="M18861.145,195.755h-26a.755.755,0,1,1,0-1.51h26a.755.755,0,1,1,0,1.51Z" transform="translate(-17803.145 23.5)" fill="rgba(255,255,255,0.74)"/>
    </g>
    <g id="Grupo_3952" data-name="Grupo 3952" transform="translate(35 2.5)">
      <path id="Trazado_7084-5" data-name="Trazado 7084" d="M18861.145,195.755h-26a.755.755,0,1,1,0-1.51h26a.755.755,0,1,1,0,1.51Z" transform="translate(-17803.145 23.5)" fill="rgba(255,255,255,0.74)"/>
    </g>
    <g id="Grupo_3977" data-name="Grupo 3977" transform="translate(35 46.5)">
      <path id="Trazado_7084-6" data-name="Trazado 7084" d="M18861.145,195.755h-26a.755.755,0,1,1,0-1.51h26a.755.755,0,1,1,0,1.51Z" transform="translate(-17803.145 23.5)" fill="rgba(255,255,255,0.74)"/>
    </g>
    <g id="Grupo_3902" data-name="Grupo 3902" transform="translate(0 8.5)">
      <path id="Trazado_7084-7" data-name="Trazado 7084" d="M18848.145,195.755h-13a.755.755,0,1,1,0-1.51h13a.755.755,0,1,1,0,1.51Z" transform="translate(-17803.145 23.5)" fill="rgba(255,255,255,0.74)"/>
    </g>
    <g id="Grupo_3981" data-name="Grupo 3981" transform="translate(0 52.5)">
      <path id="Trazado_7084-8" data-name="Trazado 7084" d="M18848.145,195.755h-13a.755.755,0,1,1,0-1.51h13a.755.755,0,1,1,0,1.51Z" transform="translate(-17803.145 23.5)" fill="rgba(255,255,255,0.74)"/>
    </g>
    <g id="Grupo_3949" data-name="Grupo 3949" transform="translate(70 8.5)">
      <path id="Trazado_7084-9" data-name="Trazado 7084" d="M18848.145,195.755h-13a.755.755,0,1,1,0-1.51h13a.755.755,0,1,1,0,1.51Z" transform="translate(-17803.145 23.5)" fill="rgba(255,255,255,0.74)"/>
    </g>
    <g id="Grupo_3978" data-name="Grupo 3978" transform="translate(70 52.5)">
      <path id="Trazado_7084-10" data-name="Trazado 7084" d="M18848.145,195.755h-13a.755.755,0,1,1,0-1.51h13a.755.755,0,1,1,0,1.51Z" transform="translate(-17803.145 23.5)" fill="rgba(255,255,255,0.74)"/>
    </g>
    <g id="Grupo_3953" data-name="Grupo 3953" transform="translate(35 8.5)">
      <path id="Trazado_7084-11" data-name="Trazado 7084" d="M18848.145,195.755h-13a.755.755,0,1,1,0-1.51h13a.755.755,0,1,1,0,1.51Z" transform="translate(-17803.145 23.5)" fill="rgba(255,255,255,0.74)"/>
    </g>
    <g id="Grupo_3979" data-name="Grupo 3979" transform="translate(35 52.5)">
      <path id="Trazado_7084-12" data-name="Trazado 7084" d="M18848.145,195.755h-13a.755.755,0,1,1,0-1.51h13a.755.755,0,1,1,0,1.51Z" transform="translate(-17803.145 23.5)" fill="rgba(255,255,255,0.74)"/>
    </g>
    <rect id="Rectángulo_6478" data-name="Rectángulo 6478" width="26" height="24" rx="1" transform="translate(1032 191)" fill="rgba(255,255,255,0.12)"/>
    <rect id="Rectángulo_6495" data-name="Rectángulo 6495" width="26" height="24" rx="1" transform="translate(1032 235)" fill="rgba(255,255,255,0.12)"/>
    <rect id="Rectángulo_6479" data-name="Rectángulo 6479" width="26" height="24" rx="1" transform="translate(1102 191)" fill="rgba(255,255,255,0.12)"/>
    <rect id="Rectángulo_6493" data-name="Rectángulo 6493" width="26" height="24" rx="1" transform="translate(1102 235)" fill="rgba(255,255,255,0.12)"/>
    <rect id="Rectángulo_6480" data-name="Rectángulo 6480" width="26" height="24" rx="1" transform="translate(1067 191)" fill="rgba(255,255,255,0.12)"/>
    <rect id="Rectángulo_6494" data-name="Rectángulo 6494" width="26" height="24" rx="1" transform="translate(1067 235)" fill="rgba(255,255,255,0.12)"/>
  </g>
</svg>
