<svg width="38" height="39" viewBox="0 0 38 39" fill="none" xmlns="http://www.w3.org/2000/svg">
<g id="sl_z_072523_61700_01 [Convertido]-01 2">
<path id="Vector" d="M28.1023 28.1572L20.9743 17.8019L20.1685 16.6307L15.0698 9.22325L14.6472 8.60938H8.38184L9.90989 10.8299L16.6894 20.6802L17.4952 21.8501L22.9424 29.7646L23.365 30.3779H29.6303L28.1023 28.1573V28.1572ZM24.1096 28.9605L18.4504 20.7382L17.6446 19.5678L11.0778 10.0268H13.9026L19.2133 17.7428L20.0191 18.9132L26.9345 28.9605H24.1098H24.1096Z" fill="#C7CACC"/>
<path id="Vector_2" d="M17.6447 19.5664L18.4505 20.7368L17.4951 21.8487L10.165 30.3763H8.35742L16.6893 20.6788L17.6447 19.5664Z" fill="#C7CACC"/>
<path id="Vector_3" d="M28.8759 8.60938L20.9743 17.8019L20.019 18.9131L19.2131 17.7426L20.1685 16.6307L25.5209 10.4009L27.0683 8.60938H28.8759Z" fill="#C7CACC"/>
</g>
</svg>
