<svg width="120" height="72" viewBox="0 0 120 72" fill="none" xmlns="http://www.w3.org/2000/svg">
<g opacity="0.9">
<rect width="120" height="72" fill="white"/>
<rect x="0.5" y="0.5" width="119" height="71" stroke="black" stroke-opacity="0.12"/>
</g>
<path d="M69.7775 47.6339C70.0979 47.1304 70.3497 46.5811 70.5327 45.986C70.7158 45.391 70.8074 44.7731 70.8074 44.1322C70.8074 42.8964 70.5099 41.7978 69.9148 40.8366C69.3198 39.8296 68.5187 39.0286 67.5118 38.4336C66.5505 37.8385 65.452 37.541 64.2161 37.541C62.9803 37.541 61.8588 37.8385 60.8518 38.4336C59.8906 39.0286 59.1125 39.8296 58.5174 40.8366C57.9224 41.7978 57.6249 42.8964 57.6249 44.1322C57.6249 45.3681 57.9224 46.4895 58.5174 47.4965C59.1125 48.4578 59.8906 49.2359 60.8518 49.8309C61.8588 50.426 62.9803 50.7235 64.2161 50.7235C64.8569 50.7235 65.4749 50.632 66.0699 50.4489C66.665 50.2658 67.2142 50.014 67.7177 49.6936L72.2492 54.2938L74.3776 52.1653L69.7775 47.6339ZM64.2161 47.7712C63.2091 47.7712 62.3395 47.4279 61.6071 46.7413C60.9205 46.0089 60.5772 45.1392 60.5772 44.1322C60.5772 43.1253 60.9205 42.2785 61.6071 41.5919C62.3395 40.8595 63.2091 40.4933 64.2161 40.4933C65.2231 40.4933 66.0699 40.8595 66.7565 41.5919C67.4889 42.2785 67.855 43.1253 67.855 44.1322C67.855 45.1392 67.4889 46.0089 66.7565 46.7413C66.0699 47.4279 65.2231 47.7712 64.2161 47.7712ZM63.6669 35.3439C62.6141 35.3897 61.6071 35.6186 60.6459 36.0305L59.822 34.7946L54.2606 43.8576L49.8664 38.7082L44.511 47.2219L42.108 45.5054L49.4545 33.7648L53.8486 38.9142L59.6846 29.3706C59.6846 29.3706 59.822 29.5766 60.0966 29.9885C60.3712 30.4005 60.6916 30.904 61.0578 31.499C61.4698 32.0941 61.8817 32.6891 62.2937 33.2841C62.7056 33.8334 63.026 34.314 63.2549 34.726C63.5295 35.1379 63.6669 35.3439 63.6669 35.3439ZM67.5118 36.0992C66.5505 35.6872 65.5435 35.4355 64.4908 35.3439C64.4908 35.3439 64.6739 35.0693 65.04 34.52C65.4062 33.925 65.8639 33.1926 66.4132 32.3229C67.0083 31.4075 67.6033 30.4462 68.1983 29.4393C68.8392 28.4323 69.4342 27.4939 69.9835 26.6242C70.5785 25.7088 71.0591 24.9764 71.4253 24.4272C71.7915 23.8321 71.9746 23.5346 71.9746 23.5346L74.3776 25.2511L67.5118 36.0992Z" fill="black" fill-opacity="0.74"/>
<path d="M36.9019 12C36.9019 11.502 36.4982 11.0982 36.0001 11.0982C35.5021 11.0982 35.0984 11.502 35.0984 12L36.9019 12ZM35.0984 58.1963L35.0984 59.0981L36.9019 59.0981L36.9019 58.1963L35.0984 58.1963ZM35.0984 12L35.0984 58.1963L36.9019 58.1963L36.9019 12L35.0984 12Z" fill="black" fill-opacity="0.74"/>
<path d="M36.0039 59.0981L35.1021 59.0942L35.0944 60.8977L35.9961 60.9016L36.0039 59.0981ZM83.9961 61.1081C84.4941 61.1102 84.8996 60.7082 84.9017 60.2102C84.9039 59.7122 84.5019 59.3067 84.0039 59.3046L83.9961 61.1081ZM35.9961 60.9016L83.9961 61.1081L84.0039 59.3046L36.0039 59.0981L35.9961 60.9016Z" fill="black" fill-opacity="0.74"/>
</svg>
