<svg width="90" height="74" viewBox="0 0 90 74" fill="none" xmlns="http://www.w3.org/2000/svg">
<rect width="90" height="74" rx="4" fill="#121212"/>
<rect width="90" height="74" rx="4" fill="white" fill-opacity="0.16"/>
<rect width="90" height="74" rx="4" fill="#1464A5" fill-opacity="0.06"/>
<rect x="0.5" y="0.5" width="89" height="73" rx="3.5" stroke="white" stroke-opacity="0.12"/>
<rect x="3" y="9" width="84" height="62" rx="2" fill="#121212"/>
<rect x="3" y="9" width="84" height="62" rx="2" fill="white" fill-opacity="0.16"/>
<rect x="3" y="9" width="84" height="62" rx="2" fill="#1464A5" fill-opacity="0.06"/>
<rect x="3.5" y="9.5" width="83" height="61" rx="1.5" stroke="white" stroke-opacity="0.12"/>
<circle cx="9.5" cy="4.5" r="1.5" fill="white" fill-opacity="0.74"/>
<circle cx="14.5" cy="4.5" r="1.5" fill="white" fill-opacity="0.74"/>
<circle cx="19.5" cy="4.5" r="1.5" fill="white" fill-opacity="0.74"/>
<path d="M13.6667 33.3334C13.3 33.3334 12.9861 33.2029 12.725 32.9417C12.4639 32.6806 12.3333 32.3667 12.3333 32.0001V24.0001C12.3333 23.6334 12.4639 23.3195 12.725 23.0584C12.9861 22.7973 13.3 22.6667 13.6667 22.6667H17.6667L19 24.0001H24.3333C24.7 24.0001 25.0139 24.1306 25.275 24.3917C25.5361 24.6529 25.6667 24.9667 25.6667 25.3334H18.45L17.1167 24.0001H13.6667V32.0001L15.2667 26.6667H26.6667L24.95 32.3834C24.8611 32.6723 24.6972 32.9029 24.4583 33.0751C24.2195 33.2473 23.9556 33.3334 23.6667 33.3334H13.6667ZM15.0667 32.0001H23.6667L24.8667 28.0001H16.2667L15.0667 32.0001Z" fill="white" fill-opacity="0.74"/>
<path d="M65.6667 33.3334C65.3 33.3334 64.9861 33.2029 64.725 32.9417C64.4639 32.6806 64.3333 32.3667 64.3333 32.0001V24.0001C64.3333 23.6334 64.4639 23.3195 64.725 23.0584C64.9861 22.7973 65.3 22.6667 65.6667 22.6667H69.6667L71 24.0001H76.3333C76.7 24.0001 77.0139 24.1306 77.275 24.3917C77.5361 24.6529 77.6667 24.9667 77.6667 25.3334H70.45L69.1167 24.0001H65.6667V32.0001L67.2667 26.6667H78.6667L76.95 32.3834C76.8611 32.6723 76.6972 32.9029 76.4583 33.0751C76.2195 33.2473 75.9556 33.3334 75.6667 33.3334H65.6667ZM67.0667 32.0001H75.6667L76.8667 28.0001H68.2667L67.0667 32.0001Z" fill="white" fill-opacity="0.74"/>
<path d="M39.6667 55.3334C39.3 55.3334 38.9861 55.2029 38.725 54.9417C38.4639 54.6806 38.3333 54.3667 38.3333 54.0001V46.0001C38.3333 45.6334 38.4639 45.3195 38.725 45.0584C38.9861 44.7973 39.3 44.6667 39.6667 44.6667H43.6667L45 46.0001H50.3333C50.7 46.0001 51.0139 46.1306 51.275 46.3917C51.5361 46.6529 51.6667 46.9667 51.6667 47.3334H44.45L43.1167 46.0001H39.6667V54.0001L41.2667 48.6667H52.6667L50.95 54.3834C50.8611 54.6723 50.6972 54.9029 50.4583 55.0751C50.2195 55.2473 49.9556 55.3334 49.6667 55.3334H39.6667ZM41.0667 54.0001H49.6667L50.8667 50.0001H42.2667L41.0667 54.0001Z" fill="white" fill-opacity="0.74"/>
<path d="M65.6667 55.3334C65.3 55.3334 64.9861 55.2029 64.725 54.9417C64.4639 54.6806 64.3333 54.3667 64.3333 54.0001V46.0001C64.3333 45.6334 64.4639 45.3195 64.725 45.0584C64.9861 44.7973 65.3 44.6667 65.6667 44.6667H69.6667L71 46.0001H76.3333C76.7 46.0001 77.0139 46.1306 77.275 46.3917C77.5361 46.6529 77.6667 46.9667 77.6667 47.3334H70.45L69.1167 46.0001H65.6667V54.0001L67.2667 48.6667H78.6667L76.95 54.3834C76.8611 54.6723 76.6972 54.9029 76.4583 55.0751C76.2195 55.2473 75.9556 55.3334 75.6667 55.3334H65.6667ZM67.0667 54.0001H75.6667L76.8667 50.0001H68.2667L67.0667 54.0001Z" fill="white" fill-opacity="0.74"/>
<path d="M39.6667 33.3334C39.3 33.3334 38.9861 33.2029 38.725 32.9417C38.4639 32.6806 38.3333 32.3667 38.3333 32.0001V24.0001C38.3333 23.6334 38.4639 23.3195 38.725 23.0584C38.9861 22.7973 39.3 22.6667 39.6667 22.6667H43.6667L45 24.0001H50.3333C50.7 24.0001 51.0139 24.1306 51.275 24.3917C51.5361 24.6529 51.6667 24.9667 51.6667 25.3334V32.0001C51.6667 32.3667 51.5361 32.6806 51.275 32.9417C51.0139 33.2029 50.7 33.3334 50.3333 33.3334H39.6667ZM39.6667 32.0001H50.3333V25.3334H44.45L43.1167 24.0001H39.6667V32.0001Z" fill="white" fill-opacity="0.74"/>
<path d="M13.6667 55.3334C13.3 55.3334 12.9861 55.2029 12.725 54.9417C12.4639 54.6806 12.3333 54.3667 12.3333 54.0001V46.0001C12.3333 45.6334 12.4639 45.3195 12.725 45.0584C12.9861 44.7973 13.3 44.6667 13.6667 44.6667H17.6667L19 46.0001H24.3333C24.7 46.0001 25.0139 46.1306 25.275 46.3917C25.5361 46.6529 25.6667 46.9667 25.6667 47.3334V54.0001C25.6667 54.3667 25.5361 54.6806 25.275 54.9417C25.0139 55.2029 24.7 55.3334 24.3333 55.3334H13.6667ZM13.6667 54.0001H24.3333V47.3334H18.45L17.1167 46.0001H13.6667V54.0001Z" fill="white" fill-opacity="0.74"/>
</svg>
