<svg xmlns="http://www.w3.org/2000/svg" width="130" height="88" viewBox="0 0 130 88">
  <g id="Ilustraion_Gallery" data-name="Ilustraion Gallery" transform="translate(-5558 -109)">
    <g id="bg_ilustracion" data-name="bg ilustracion" transform="translate(5165 -600)">
      <rect id="Rectángulo_121212" data-name="Rectángulo #121212" width="130" height="88" rx="2" transform="translate(393 709)" fill="#121212"/>
      <path id="Rectángulo_121212_-_Contorno" data-name="Rectángulo #121212 - Contorno" d="M2,1A1,1,0,0,0,1,2V86a1,1,0,0,0,1,1H128a1,1,0,0,0,1-1V2a1,1,0,0,0-1-1H2M2,0H128a2,2,0,0,1,2,2V86a2,2,0,0,1-2,2H2a2,2,0,0,1-2-2V2A2,2,0,0,1,2,0Z" transform="translate(393 709)" fill="rgba(255,255,255,0.12)"/>
      <rect id="Rectángulo_W16_" data-name="Rectángulo W16%" width="130" height="88" rx="2" transform="translate(393 709)" fill="rgba(255,255,255,0.16)"/>
      <path id="Rectángulo_W16_-_Contorno" data-name="Rectángulo W16% - Contorno" d="M2,1A1,1,0,0,0,1,2V86a1,1,0,0,0,1,1H128a1,1,0,0,0,1-1V2a1,1,0,0,0-1-1H2M2,0H128a2,2,0,0,1,2,2V86a2,2,0,0,1-2,2H2a2,2,0,0,1-2-2V2A2,2,0,0,1,2,0Z" transform="translate(393 709)" fill="rgba(255,255,255,0.12)"/>
      <rect id="Rectángulo_bc6_" data-name="Rectángulo bc6%" width="130" height="88" rx="2" transform="translate(393 709)" fill="rgba(20,100,165,0.06)"/>
      <path id="Rectángulo_bc6_-_Contorno" data-name="Rectángulo bc6% - Contorno" d="M2,1A1,1,0,0,0,1,2V86a1,1,0,0,0,1,1H128a1,1,0,0,0,1-1V2a1,1,0,0,0-1-1H2M2,0H128a2,2,0,0,1,2,2V86a2,2,0,0,1-2,2H2a2,2,0,0,1-2-2V2A2,2,0,0,1,2,0Z" transform="translate(393 709)" fill="rgba(255,255,255,0.12)"/>
    </g>
    <g id="imagen" transform="translate(40.375 -5.164)">
      <path id="Trazado_7227" data-name="Trazado 7227" d="M5644.969,168.042a.748.748,0,0,1-.573-.266l-11.872-14.048-8.347,7.162a.75.75,0,1,1-.977-1.138l9.493-8.146,12.847,15.2a.75.75,0,0,1-.572,1.234Z" transform="translate(-40.408 -11.906)" fill="rgba(255,255,255,0.74)"/>
      <path id="Elipse_1180" data-name="Elipse 1180" d="M2.953,1.5A1.453,1.453,0,1,0,4.406,2.953,1.455,1.455,0,0,0,2.953,1.5m0-1.5A2.953,2.953,0,1,1,0,2.953,2.953,2.953,0,0,1,2.953,0Z" transform="translate(5579.558 134.164)" fill="rgba(255,255,255,0.74)"/>
      <path id="Trazado_7226" data-name="Trazado 7226" d="M5558.6,170.606a.75.75,0,0,1-.487-1.321l.151-.129,15.923-13.532,12.371,13.73a.75.75,0,0,1-1.114,1l-11.4-12.648-14.963,12.717A.747.747,0,0,1,5558.6,170.606Z" transform="translate(1.569 -14.47)" fill="rgba(255,255,255,0.74)"/>
    </g>
    <path id="Rectángulo_6485" data-name="Rectángulo 6485" d="M1,1V27H113V1H1M1,0H113a1,1,0,0,1,1,1V27a1,1,0,0,1-1,1H1a1,1,0,0,1-1-1V1A1,1,0,0,1,1,0Z" transform="translate(5566 124)" fill="rgba(255,255,255,0.16)"/>
    <g id="Grupo_3963" data-name="Grupo 3963" transform="translate(-151 100)">
      <path id="Rectángulo_6488" data-name="Rectángulo 6488" d="M1,1V21H31V1H1M1,0H31a1,1,0,0,1,1,1V21a1,1,0,0,1-1,1H1a1,1,0,0,1-1-1V1A1,1,0,0,1,1,0Z" transform="translate(5717 60)" fill="rgba(255,255,255,0.16)"/>
      <g id="Grupo_3957" data-name="Grupo 3957" transform="translate(5717.989 66.381)">
        <g id="Grupo_3958" data-name="Grupo 3958" transform="translate(0.577 0.238)">
          <path id="Trazado_7233" data-name="Trazado 7233" d="M26.953,13.965a.5.5,0,0,1-.38-.175L18.667,4.537,13.221,9.161a.5.5,0,1,1-.647-.762l6.205-5.27,8.554,10.011a.5.5,0,0,1-.38.825Z" transform="translate(1.971 0.375)" fill="rgba(255,255,255,0.74)"/>
          <path id="Trazado_7234" data-name="Trazado 7234" d="M12.875.27a1.923,1.923,0,1,1-1.923,1.923A1.922,1.922,0,0,1,12.875.27Z" transform="translate(1.586 -0.27)" fill="none"/>
          <path id="Elipse_1181" data-name="Elipse 1181" d="M1.435-.5A1.935,1.935,0,1,1-.5,1.435,1.937,1.937,0,0,1,1.435-.5Zm0,2.869A.935.935,0,1,0,.5,1.435.936.936,0,0,0,1.435,2.369Z" transform="translate(13.026 0.489)" fill="rgba(255,255,255,0.74)"/>
          <path id="Trazado_7235" data-name="Trazado 7235" d="M.345,13.806a.5.5,0,0,1-.324-.881L.167,12.8l10.223-8.89,8.071,9.063a.5.5,0,0,1-.747.665L10.3,5.314.668,13.687A.5.5,0,0,1,.345,13.806Z" transform="translate(-0.345 0.534)" fill="rgba(255,255,255,0.74)"/>
        </g>
      </g>
    </g>
    <g id="Grupo_3970" data-name="Grupo 3970" transform="translate(-69 100)">
      <path id="Rectángulo_6488-2" data-name="Rectángulo 6488" d="M1,1V21H31V1H1M1,0H31a1,1,0,0,1,1,1V21a1,1,0,0,1-1,1H1a1,1,0,0,1-1-1V1A1,1,0,0,1,1,0Z" transform="translate(5717 60)" fill="rgba(255,255,255,0.16)"/>
      <g id="Grupo_3957-2" data-name="Grupo 3957" transform="translate(5717.989 66.381)">
        <g id="Grupo_3958-2" data-name="Grupo 3958" transform="translate(0.577 0.238)">
          <path id="Trazado_7233-2" data-name="Trazado 7233" d="M26.953,13.965a.5.5,0,0,1-.38-.175L18.667,4.537,13.221,9.161a.5.5,0,1,1-.647-.762l6.205-5.27,8.554,10.011a.5.5,0,0,1-.38.825Z" transform="translate(1.971 0.375)" fill="rgba(255,255,255,0.74)"/>
          <path id="Trazado_7234-2" data-name="Trazado 7234" d="M12.875.27a1.923,1.923,0,1,1-1.923,1.923A1.922,1.922,0,0,1,12.875.27Z" transform="translate(1.586 -0.27)" fill="none"/>
          <path id="Elipse_1181-2" data-name="Elipse 1181" d="M1.435-.5A1.935,1.935,0,1,1-.5,1.435,1.937,1.937,0,0,1,1.435-.5Zm0,2.869A.935.935,0,1,0,.5,1.435.936.936,0,0,0,1.435,2.369Z" transform="translate(13.026 0.489)" fill="rgba(255,255,255,0.74)"/>
          <path id="Trazado_7235-2" data-name="Trazado 7235" d="M.345,13.806a.5.5,0,0,1-.324-.881L.167,12.8l10.223-8.89,8.071,9.063a.5.5,0,0,1-.747.665L10.3,5.314.668,13.687A.5.5,0,0,1,.345,13.806Z" transform="translate(-0.345 0.534)" fill="rgba(255,255,255,0.74)"/>
        </g>
      </g>
    </g>
    <g id="Grupo_3971" data-name="Grupo 3971" transform="translate(-110 100)">
      <path id="Rectángulo_6488-3" data-name="Rectángulo 6488" d="M1,1V21H31V1H1M1,0H31a1,1,0,0,1,1,1V21a1,1,0,0,1-1,1H1a1,1,0,0,1-1-1V1A1,1,0,0,1,1,0Z" transform="translate(5717 60)" fill="rgba(255,255,255,0.16)"/>
      <g id="Grupo_3957-3" data-name="Grupo 3957" transform="translate(5717.989 66.381)">
        <g id="Grupo_3958-3" data-name="Grupo 3958" transform="translate(0.577 0.238)">
          <path id="Trazado_7233-3" data-name="Trazado 7233" d="M26.953,13.965a.5.5,0,0,1-.38-.175L18.667,4.537,13.221,9.161a.5.5,0,1,1-.647-.762l6.205-5.27,8.554,10.011a.5.5,0,0,1-.38.825Z" transform="translate(1.971 0.375)" fill="rgba(255,255,255,0.74)"/>
          <path id="Trazado_7234-3" data-name="Trazado 7234" d="M12.875.27a1.923,1.923,0,1,1-1.923,1.923A1.922,1.922,0,0,1,12.875.27Z" transform="translate(1.586 -0.27)" fill="none"/>
          <path id="Elipse_1181-3" data-name="Elipse 1181" d="M1.435-.5A1.935,1.935,0,1,1-.5,1.435,1.937,1.937,0,0,1,1.435-.5Zm0,2.869A.935.935,0,1,0,.5,1.435.936.936,0,0,0,1.435,2.369Z" transform="translate(13.026 0.489)" fill="rgba(255,255,255,0.74)"/>
          <path id="Trazado_7235-3" data-name="Trazado 7235" d="M.345,13.806a.5.5,0,0,1-.324-.881L.167,12.8l10.223-8.89,8.071,9.063a.5.5,0,0,1-.747.665L10.3,5.314.668,13.687A.5.5,0,0,1,.345,13.806Z" transform="translate(-0.345 0.534)" fill="rgba(255,255,255,0.74)"/>
        </g>
      </g>
    </g>
  </g>
</svg>
