<svg width="120" height="72" viewBox="0 0 120 72" fill="none" xmlns="http://www.w3.org/2000/svg">
<rect width="120" height="72" fill="#121212"/>
<rect width="120" height="72" fill="white" fill-opacity="0.16"/>
<rect width="120" height="72" fill="#1464A5" fill-opacity="0.06"/>
<rect x="0.5" y="0.5" width="119" height="71" stroke="white" stroke-opacity="0.12"/>
<circle cx="60.2452" cy="33.98" r="19.7452" stroke="white" stroke-opacity="0.38" stroke-dasharray="2 2"/>
<g clip-path="url(#clip0_148_898)">
<path d="M23.7445 19.0897L35.3078 14.9697L47.1824 19.0164L45.2597 34.3151L35.3078 39.8267L25.5115 34.3884L23.7445 19.0897Z" fill="black" fill-opacity="0.74"/>
<path d="M47.1823 19.0164L35.3077 14.9697V39.8267L45.2597 34.3243L47.1823 19.0164Z" fill="#212527"/>
<path d="M35.326 17.8721L28.1207 33.9032L30.8124 33.8574L32.259 30.241H35.3352H35.3443H38.7227L40.3066 33.9032L42.8793 33.949L35.326 17.8721ZM35.3443 23.0083L37.7797 28.0987H35.4451H35.326H33.202L35.3443 23.0083Z" fill="white" fill-opacity="0.74"/>
</g>
<g clip-path="url(#clip1_148_898)">
<path d="M84.5 39.9055C91.4036 39.9055 97 34.3091 97 27.4055C97 20.502 91.4036 14.9055 84.5 14.9055C77.5964 14.9055 72 20.502 72 27.4055C72 34.3091 77.5964 39.9055 84.5 39.9055Z" fill="#212527"/>
<path d="M91.1943 24.5613H89.2266C89.1899 24.5613 89.1533 24.5417 89.1362 24.51L87.5566 21.7708C87.5371 21.739 87.5029 21.7195 87.4639 21.7195H81.0186C80.9819 21.7195 80.9453 21.739 80.9282 21.7708L79.2852 24.6125L77.7031 27.3518C77.686 27.3835 77.686 27.4226 77.7031 27.4568L79.2852 30.196L80.9258 33.0403C80.9429 33.072 80.9795 33.094 81.0161 33.0916H87.4639C87.5005 33.0916 87.5371 33.072 87.5566 33.0403L89.1387 30.301C89.1558 30.2693 89.1924 30.2473 89.229 30.2498H91.1968C91.2627 30.2498 91.314 30.196 91.314 30.1326V24.6809C91.3115 24.615 91.2578 24.5613 91.1943 24.5613ZM83.6577 30.301L83.1621 31.1555C83.1548 31.1677 83.1426 31.1799 83.1304 31.1873C83.1157 31.1946 83.1011 31.1995 83.084 31.1995H82.1001C82.0659 31.1995 82.0342 31.1824 82.0195 31.1506L80.5522 28.6042L80.4082 28.3528L79.8809 27.4519C79.8735 27.4397 79.8687 27.425 79.8711 27.408C79.8711 27.3933 79.876 27.3762 79.8833 27.364L80.4131 26.446L82.022 23.6628C82.0391 23.6335 82.0708 23.614 82.1025 23.614H83.084C83.1011 23.614 83.1182 23.6189 83.1353 23.6262C83.1475 23.6335 83.1597 23.6433 83.167 23.658L83.6626 24.5173C83.6772 24.5466 83.6748 24.5833 83.6577 24.6101L82.0684 27.364C82.061 27.3762 82.0586 27.3909 82.0586 27.4031C82.0586 27.4177 82.0635 27.4299 82.0684 27.4421L83.6577 30.1936C83.6797 30.2302 83.6772 30.2693 83.6577 30.301ZM88.5918 27.4519L88.0645 28.3528L87.9204 28.6042L86.4531 31.1506C86.436 31.1799 86.4067 31.1995 86.3726 31.1995H85.3887C85.3716 31.1995 85.3569 31.1946 85.3423 31.1873C85.3301 31.1799 85.3179 31.1702 85.3105 31.1555L84.8149 30.301C84.793 30.2693 84.793 30.2302 84.8125 30.1985L86.4019 27.447C86.4092 27.4348 86.4116 27.4202 86.4116 27.408C86.4116 27.3933 86.4067 27.3811 86.4019 27.3689L84.8125 24.615C84.7954 24.5857 84.793 24.5515 84.8076 24.5222L85.3032 23.6628C85.3105 23.6506 85.3228 23.6384 85.335 23.6311C85.3496 23.6213 85.3667 23.6189 85.3862 23.6189H86.3726C86.4067 23.6189 86.4385 23.636 86.4531 23.6677L88.062 26.4509L88.5918 27.3689C88.5991 27.3835 88.604 27.3982 88.604 27.4128C88.604 27.4226 88.5991 27.4373 88.5918 27.4519Z" fill="white" fill-opacity="0.74"/>
</g>
<path d="M58.8869 27.8869C58.6316 28.1422 58.504 28.4368 58.504 28.7707C58.504 29.1045 58.6316 29.3991 58.8869 29.6544C59.1422 29.9097 59.4368 30.0374 59.7707 30.0374C60.1045 30.0374 60.3991 29.9097 60.6544 29.6544C60.9097 29.3991 61.0374 29.1045 61.0374 28.7707C61.0374 28.4368 60.9097 28.1422 60.6544 27.8869C60.3991 27.6513 60.1045 27.5334 59.7707 27.5334C59.4368 27.5334 59.1422 27.6513 58.8869 27.8869ZM61.0374 32.3351L61.0374 38.8455H58.504V37.5787H56L56 35.0748L58.504 35.0748L58.504 32.3351C57.8166 32.0798 57.2274 31.5987 56.7365 30.8917C56.2455 30.2043 56 29.4973 56 28.7707C56 27.7298 56.3633 26.8362 57.09 26.09C57.8362 25.3633 58.7298 25 59.7707 25C60.8115 25 61.6953 25.3633 62.4219 26.09C63.1682 26.8362 63.5414 27.7298 63.5414 28.7707C63.5414 29.4973 63.2959 30.2043 62.8049 30.8917C62.3139 31.5987 61.7248 32.0798 61.0374 32.3351Z" fill="white" fill-opacity="0.74"/>
<path d="M67.9635 51.2828C69.3509 51.3843 70.5353 51.9596 71.5166 53.0086C72.498 54.0238 72.9887 55.242 72.9887 56.6633C72.9887 58.1522 72.4472 59.4381 71.3644 60.5209C70.3153 61.57 69.0464 62.0945 67.5574 62.0945H53.4972C51.7037 62.0945 50.164 61.4684 48.8781 60.2164C47.626 58.9305 47 57.3908 47 55.5973C47 54.0069 47.5584 52.5856 48.6751 51.3335C49.8256 50.0476 51.1961 49.3201 52.7865 49.1509C53.4972 47.8312 54.4954 46.7652 55.7813 45.9531C57.0672 45.1409 58.4716 44.7349 59.9943 44.7349C61.8217 44.7349 63.5136 45.3778 65.0702 46.6637C66.6607 47.9496 67.6251 49.4893 67.9635 51.2828Z" fill="#212527"/>
<path d="M56.472 54.7752C57.4703 54.3691 58.4262 54.1661 59.3399 54.1661C60.2536 54.1661 61.2011 54.3691 62.1824 54.7752C63.1807 55.1643 63.6798 55.6804 63.6798 56.3233V57.4147H55V56.3233C55 55.6804 55.4907 55.1643 56.472 54.7752ZM60.8627 52.4403C60.4397 52.8633 59.9321 53.0748 59.3399 53.0748C58.7477 53.0748 58.2401 52.8633 57.8171 52.4403C57.3941 52.0173 57.1826 51.5097 57.1826 50.9175C57.1826 50.3253 57.3941 49.8177 57.8171 49.3947C58.2401 48.9548 58.7477 48.7349 59.3399 48.7349C59.9321 48.7349 60.4397 48.9548 60.8627 49.3947C61.2857 49.8177 61.4972 50.3253 61.4972 50.9175C61.4972 51.5097 61.2857 52.0173 60.8627 52.4403Z" fill="white" fill-opacity="0.74"/>
<defs>
<clipPath id="clip0_148_898">
<rect width="25" height="25" fill="white" transform="translate(23 14.9055)"/>
</clipPath>
<clipPath id="clip1_148_898">
<rect width="25" height="25" fill="white" transform="translate(72 14.9055)"/>
</clipPath>
</defs>
</svg>
