<svg width="42" height="76" viewBox="0 0 42 76" fill="none" xmlns="http://www.w3.org/2000/svg">
<path d="M26.1362 74.4771L28.2446 51.4184L15.1765 46.8241L13.0681 69.8829L26.1362 74.4771ZM40.1897 45.4341C40.9384 45.4341 41.3127 45.8084 41.3127 46.5571L39.2043 70.6604C39.2043 71.2049 38.932 71.5452 38.3875 71.6813L26.1362 75.8672L13.0681 71.273L1.42932 75.7651L1.12304 75.8672C0.374346 75.8672 0 75.4929 0 74.7442L2.10842 50.6409C2.10842 50.0964 2.38067 49.7561 2.92518 49.62L15.1765 45.4341L28.2446 50.0283L39.8834 45.5362L40.1897 45.4341Z" fill="black" fill-opacity="0.74"/>
<path d="M18.7217 16.6699C19.3308 17.2409 20.0542 17.5264 20.8917 17.5264C21.7292 17.5264 22.4335 17.2409 23.0045 16.6699C23.6136 16.0608 23.9182 15.3374 23.9182 14.4999C23.9182 13.6624 23.6136 12.9581 23.0045 12.3871C22.4335 11.778 21.7292 11.4734 20.8917 11.4734C20.0542 11.4734 19.3308 11.778 18.7217 12.3871C18.1507 12.9581 17.8652 13.6624 17.8652 14.4999C17.8652 15.3374 18.1507 16.0608 18.7217 16.6699ZM14.8387 8.50401C16.5137 6.82896 18.5314 5.99143 20.8917 5.99143C23.252 5.99143 25.2506 6.82896 26.8876 8.50401C28.5627 10.141 29.4002 12.1396 29.4002 14.4999C29.4002 15.6801 29.0956 17.0315 28.4865 18.5543C27.9155 20.0771 27.2112 21.5047 26.3737 22.8371C25.5361 24.1695 24.6986 25.4258 23.8611 26.606C23.0616 27.748 22.3764 28.6617 21.8054 29.347L20.8917 30.3177C20.6633 30.0512 20.3587 29.7086 19.978 29.2899C19.5973 28.833 18.9121 27.9574 17.9223 26.6631C16.9325 25.3306 16.0569 24.0553 15.2955 22.8371C14.5722 21.5808 13.906 20.1723 13.2969 18.6114C12.6878 17.0506 12.3832 15.6801 12.3832 14.4999C12.3832 12.1396 13.2017 10.141 14.8387 8.50401Z" fill="black" fill-opacity="0.74"/>
<path d="M14.997 34.861C16.5959 34.0488 18.5121 33.6428 20.7455 33.6428C22.9789 33.6428 24.8824 34.0488 26.4559 34.861C28.0548 35.6477 28.8543 36.5995 28.8543 37.7162C28.8543 38.5537 28.3974 39.3151 27.4838 40.0003C26.5955 40.6602 25.428 41.1424 23.9814 41.447V39.7719C24.9712 39.5181 25.758 39.2009 26.3417 38.8202C26.9508 38.4141 27.2554 38.0461 27.2554 37.7162C27.2554 37.4116 27.0016 37.0817 26.494 36.7264C25.9864 36.3457 25.2123 36.0157 24.1717 35.7366C23.1312 35.432 21.9891 35.2797 20.7455 35.2797C19.5019 35.2797 18.3598 35.432 17.3193 35.7366C16.2787 36.0157 15.5046 36.3457 14.997 36.7264C14.4894 37.0817 14.2356 37.4116 14.2356 37.7162C14.2356 38.0969 14.6163 38.5156 15.3777 38.9725C16.1391 39.4039 17.1162 39.7212 18.3091 39.9242V37.7162L21.545 40.9521L18.3091 44.226V41.5992C16.634 41.3201 15.2635 40.8379 14.1976 40.1526C13.157 39.442 12.6367 38.6298 12.6367 37.7162C12.6367 36.5995 13.4235 35.6477 14.997 34.861Z" fill="black" fill-opacity="0.74"/>
</svg>
