<svg width="42" height="70" viewBox="0 0 42 70" fill="none" xmlns="http://www.w3.org/2000/svg">
<path d="M26.1362 68.4856L28.2446 45.4269L15.1765 40.8326L13.0681 63.8914L26.1362 68.4856ZM40.1897 39.4426C40.9384 39.4426 41.3127 39.8169 41.3127 40.5656L39.2043 64.6689C39.2043 65.2134 38.932 65.5537 38.3875 65.6898L26.1362 69.8757L13.0681 65.2814L1.42932 69.7736L1.12304 69.8757C0.374346 69.8757 0 69.5014 0 68.7527L2.10842 44.6494C2.10842 44.1049 2.38067 43.7646 2.92518 43.6284L15.1765 39.4426L28.2446 44.0368L39.8834 39.5447L40.1897 39.4426Z" fill="white" fill-opacity="0.74"/>
<path d="M18.7217 10.6784C19.3308 11.2495 20.0541 11.535 20.8916 11.535C21.7292 11.535 22.4334 11.2495 23.0045 10.6784C23.6136 10.0693 23.9182 9.34602 23.9182 8.50849C23.9182 7.67097 23.6136 6.96668 23.0045 6.39564C22.4334 5.78654 21.7292 5.48198 20.8916 5.48198C20.0541 5.48198 19.3308 5.78654 18.7217 6.39564C18.1507 6.96668 17.8651 7.67097 17.8651 8.50849C17.8651 9.34602 18.1507 10.0693 18.7217 10.6784ZM14.8386 2.51257C16.5137 0.837525 18.5313 0 20.8916 0C23.2519 0 25.2506 0.837525 26.8876 2.51257C28.5626 4.14956 29.4001 6.14819 29.4001 8.50849C29.4001 9.68864 29.0956 11.0401 28.4865 12.5629C27.9154 14.0856 27.2111 15.5132 26.3736 16.8457C25.5361 18.1781 24.6986 19.4344 23.861 20.6145C23.0616 21.7566 22.3763 22.6703 21.8053 23.3555L20.8916 24.3263C20.6632 24.0598 20.3587 23.7172 19.978 23.2984C19.5973 22.8416 18.912 21.966 17.9222 20.6716C16.9324 19.3392 16.0568 18.0639 15.2955 16.8457C14.5721 15.5894 13.9059 14.1808 13.2968 12.62C12.6877 11.0591 12.3832 9.68864 12.3832 8.50849C12.3832 6.14819 13.2016 4.14956 14.8386 2.51257Z" fill="white" fill-opacity="0.74"/>
<path d="M14.997 28.8696C16.5959 28.0574 18.512 27.6514 20.7454 27.6514C22.9788 27.6514 24.8823 28.0574 26.4558 28.8696C28.0547 29.6563 28.8542 30.6081 28.8542 31.7248C28.8542 32.5623 28.3974 33.3237 27.4837 34.0089C26.5954 34.6688 25.428 35.151 23.9813 35.4556V33.7805C24.9711 33.5267 25.7579 33.2095 26.3416 32.8288C26.9507 32.4227 27.2553 32.0547 27.2553 31.7248C27.2553 31.4202 27.0015 31.0903 26.4939 30.735C25.9863 30.3543 25.2122 30.0243 24.1717 29.7452C23.1311 29.4406 21.989 29.2883 20.7454 29.2883C19.5018 29.2883 18.3598 29.4406 17.3192 29.7452C16.2786 30.0243 15.5046 30.3543 14.997 30.735C14.4894 31.0903 14.2356 31.4202 14.2356 31.7248C14.2356 32.1055 14.6163 32.5242 15.3777 32.9811C16.1391 33.4125 17.1162 33.7298 18.309 33.9328V31.7248L21.5449 34.9607L18.309 38.2346V35.6078C16.634 35.3287 15.2635 34.8465 14.1975 34.1612C13.157 33.4506 12.6367 32.6384 12.6367 31.7248C12.6367 30.6081 13.4234 29.6563 14.997 28.8696Z" fill="white" fill-opacity="0.74"/>
</svg>
