<svg width="58" height="73" viewBox="0 0 58 73" fill="none" xmlns="http://www.w3.org/2000/svg">
<mask id="path-1-inside-1_148_840" fill="white">
<path fill-rule="evenodd" clip-rule="evenodd" d="M2.3983 3.5C1.07376 3.5 0 4.57376 0 5.89831V70.2617C0 71.5862 1.07376 72.66 2.39831 72.66H50.8051C52.1296 72.66 53.2034 71.5862 53.2034 70.2617V69.5H52.2034V70.2617C52.2034 71.034 51.5773 71.66 50.8051 71.66H2.39831C1.62604 71.66 1 71.034 1 70.2617V5.89831C1 5.12604 1.62604 4.5 2.3983 4.5H4V3.5H2.3983Z"/>
</mask>
<path fill-rule="evenodd" clip-rule="evenodd" d="M2.3983 3.5C1.07376 3.5 0 4.57376 0 5.89831V70.2617C0 71.5862 1.07376 72.66 2.39831 72.66H50.8051C52.1296 72.66 53.2034 71.5862 53.2034 70.2617V69.5H52.2034V70.2617C52.2034 71.034 51.5773 71.66 50.8051 71.66H2.39831C1.62604 71.66 1 71.034 1 70.2617V5.89831C1 5.12604 1.62604 4.5 2.3983 4.5H4V3.5H2.3983Z" fill="#2D3236"/>
<path d="M53.2034 69.5H54.2034V68.5H53.2034V69.5ZM52.2034 69.5V68.5H51.2034V69.5H52.2034ZM4 4.5V5.5H5V4.5H4ZM4 3.5H5V2.5H4V3.5ZM1 5.89831C1 5.12604 1.62604 4.5 2.3983 4.5V2.5C0.521473 2.5 -1 4.02147 -1 5.89831H1ZM1 70.2617V5.89831H-1V70.2617H1ZM2.39831 71.66C1.62604 71.66 1 71.034 1 70.2617H-1C-1 72.1385 0.521467 73.66 2.39831 73.66V71.66ZM50.8051 71.66H2.39831V73.66H50.8051V71.66ZM52.2034 70.2617C52.2034 71.034 51.5773 71.66 50.8051 71.66V73.66C52.6819 73.66 54.2034 72.1385 54.2034 70.2617H52.2034ZM52.2034 69.5V70.2617H54.2034V69.5H52.2034ZM52.2034 70.5H53.2034V68.5H52.2034V70.5ZM53.2034 70.2617V69.5H51.2034V70.2617H53.2034ZM50.8051 72.66C52.1296 72.66 53.2034 71.5862 53.2034 70.2617H51.2034C51.2034 70.4817 51.0251 70.66 50.8051 70.66V72.66ZM2.39831 72.66H50.8051V70.66H2.39831V72.66ZM0 70.2617C0 71.5862 1.07376 72.66 2.39831 72.66V70.66C2.17833 70.66 2 70.4817 2 70.2617H0ZM0 5.89831V70.2617H2V5.89831H0ZM2.3983 3.5C1.07376 3.5 0 4.57376 0 5.89831H2C2 5.67833 2.17833 5.5 2.3983 5.5V3.5ZM4 3.5H2.3983V5.5H4V3.5ZM3 3.5V4.5H5V3.5H3ZM2.3983 4.5H4V2.5H2.3983V4.5Z" fill="white" fill-opacity="0.12" mask="url(#path-1-inside-1_148_840)"/>
<path d="M6.39831 1H38.3514C38.8586 1 39.3447 1.20297 39.7013 1.56365L56.155 18.2053C56.5063 18.5607 56.7034 19.0403 56.7034 19.54V67.2617C56.7034 68.3101 55.8535 69.16 54.8051 69.16H6.39831C5.3499 69.16 4.5 68.3101 4.5 67.2617V2.89831C4.5 1.8499 5.3499 1 6.39831 1Z" fill="#363B3F" stroke="white" stroke-opacity="0.12"/>
<path d="M53.3653 20.44L40.0771 7V20.44H53.3653Z" stroke="white" stroke-opacity="0.74"/>
<path d="M13.5 28.1201H43.8729" stroke="white" stroke-opacity="0.74" stroke-linecap="round"/>
<path d="M13.5 34.8398H43.8729" stroke="white" stroke-opacity="0.74" stroke-linecap="round"/>
<path d="M13.5 41.5601H36.2797" stroke="white" stroke-opacity="0.74" stroke-linecap="round"/>
<path d="M33.4715 58.016H35.8242V63.1784H33.4715V58.016ZM28.6864 51.1597H31.079V63.1784H28.6864V51.1597ZM23.9412 54.7492H26.4933V63.1784H23.9412V54.7492Z" fill="white" fill-opacity="0.74"/>
<path fill-rule="evenodd" clip-rule="evenodd" d="M21.4072 48.1997L21.4072 64.9974C21.4072 64.9983 21.4072 64.9991 21.4072 64.9999C21.4072 65.1379 21.4632 65.2629 21.5537 65.3534C21.6442 65.4439 21.7692 65.4999 21.9072 65.4999H40.53C40.8061 65.4999 41.03 65.276 41.03 64.9999C41.03 64.7237 40.8061 64.4999 40.53 64.4999H22.4072L22.4072 48.1997C22.4072 47.9236 22.1834 47.6997 21.9072 47.6997C21.6311 47.6997 21.4072 47.9236 21.4072 48.1997Z" fill="white" fill-opacity="0.74"/>
</svg>
