<svg xmlns="http://www.w3.org/2000/svg" width="128" height="96" viewBox="0 0 128 96">
  <g id="Ilustracion_form_layout_maneger_3" data-name="Ilustracion form layout maneger 3" transform="translate(-393 -468)">
    <path id="Trazado_7172" data-name="Trazado 7172" d="M2.286,0H125.714A2.157,2.157,0,0,1,128,2V94a2.157,2.157,0,0,1-2.286,2H2.286A2.157,2.157,0,0,1,0,94V2A2.157,2.157,0,0,1,2.286,0Z" transform="translate(393 468)" fill="#fff"/>
    <path id="Trazado_7172_-_Contorno" data-name="Trazado 7172 - Contorno" d="M2.286,1A1.186,1.186,0,0,0,1,2V94a1.186,1.186,0,0,0,1.286,1H125.714A1.186,1.186,0,0,0,127,94V2a1.186,1.186,0,0,0-1.286-1H2.286m0-1H125.714A2.157,2.157,0,0,1,128,2V94a2.157,2.157,0,0,1-2.286,2H2.286A2.157,2.157,0,0,1,0,94V2A2.157,2.157,0,0,1,2.286,0Z" transform="translate(393 468)" fill="rgba(0,0,0,0.12)"/>
    <g id="item_3" data-name="item 3" transform="translate(503.283 576)">
      <path id="Trazado_7084" data-name="Trazado 7084" d="M18849.141,195.755h-14a.755.755,0,1,1,0-1.51h14a.755.755,0,1,1,0,1.51Z" transform="translate(-18849.424 -264)" fill="rgba(0,0,0,0.6)"/>
      <path id="Trazado_7084-2" data-name="Trazado 7084" d="M18842.762,195.755h-7.621a.755.755,0,1,1,0-1.51h7.621a.755.755,0,1,1,0,1.51Z" transform="translate(-18849.424 -256)" fill="rgba(0,0,0,0.6)"/>
      <path id="Trazado_7084-3" data-name="Trazado 7084" d="M18849.41,195.755h-14.27a.755.755,0,1,1,0-1.51h14.27a.755.755,0,1,1,0,1.51Z" transform="translate(-18837.424 -256)" fill="rgba(0,0,0,0.6)"/>
      <path id="Trazado_7084-4" data-name="Trazado 7084" d="M18861.41,195.755h-26.27a.755.755,0,1,1,0-1.51h26.27a.755.755,0,1,1,0,1.51Z" transform="translate(-18849.424 -248)" fill="rgba(0,0,0,0.6)"/>
      <path id="Trazado_7084-5" data-name="Trazado 7084" d="M18843.209,195.755h-8.064a.755.755,0,1,1,0-1.51h8.064a.755.755,0,1,1,0,1.51Z" transform="translate(-18830.428 -264)" fill="rgba(0,0,0,0.6)"/>
      <path id="Trazado_7084-6" data-name="Trazado 7084" d="M18849.141,195.755h-14a.755.755,0,1,1,0-1.51h14a.755.755,0,1,1,0,1.51Z" transform="translate(-18849.424 -240)" fill="rgba(0,0,0,0.6)"/>
    </g>
    <path id="Trazado_7270" data-name="Trazado 7270" d="M18926.723,195.755h-91.576a.755.755,0,1,1,0-1.51h91.576a.755.755,0,1,1,0,1.51Z" transform="translate(677 -18365.141) rotate(90)" fill="rgba(0,0,0,0.12)"/>
    <path id="Trazado_7271" data-name="Trazado 7271" d="M18849.145,195.755h-14a.755.755,0,1,1,0-1.51h14a.755.755,0,1,1,0,1.51Z" transform="translate(677 -18325.375) rotate(90)" fill="rgba(0,0,0,0.6)"/>
    <g id="Grupo_3990" data-name="Grupo 3990" transform="translate(-631 24)">
      <path id="Trazado_7110" data-name="Trazado 7110" d="M18908.865,195.755h-73.723a.755.755,0,1,1,0-1.51h73.723a.755.755,0,1,1,0,1.51Z" transform="translate(-17802.143 284)" fill="rgba(0,0,0,0.12)"/>
      <path id="Trazado_7204" data-name="Trazado 7204" d="M18839.143,195.5h-4a.5.5,0,0,1,0-1h4a.5.5,0,0,1,0,1Z" transform="translate(1275 -18364.143) rotate(90)" fill="rgba(0,0,0,0.12)"/>
      <path id="Trazado_7205" data-name="Trazado 7205" d="M18839.143,195.5h-4a.5.5,0,0,1,0-1h4a.5.5,0,0,1,0,1Z" transform="translate(1250 -18364.143) rotate(90)" fill="rgba(0,0,0,0.12)"/>
      <path id="Trazado_7203" data-name="Trazado 7203" d="M18908.865,195.755h-73.723a.755.755,0,1,1,0-1.51h73.723a.755.755,0,1,1,0,1.51Z" transform="translate(-17802.143 296)" fill="rgba(0,0,0,0.12)"/>
      <path id="Trazado_7207" data-name="Trazado 7207" d="M18908.865,195.755h-73.723a.755.755,0,1,1,0-1.51h73.723a.755.755,0,1,1,0,1.51Z" transform="translate(-17802.143 308)" fill="rgba(0,0,0,0.12)"/>
      <path id="Trazado_7168" data-name="Trazado 7168" d="M18851.145,195.755h-16a.755.755,0,1,1,0-1.51h16a.755.755,0,1,1,0,1.51Z" transform="translate(-17800.645 278)" fill="rgba(0,0,0,0.74)"/>
      <path id="Trazado_7210" data-name="Trazado 7210" d="M18848.367,195.755h-13.223a.755.755,0,1,1,0-1.51h13.223a.755.755,0,1,1,0,1.51Z" transform="translate(-17800.645 290)" fill="rgba(0,0,0,0.6)"/>
      <path id="Trazado_7214" data-name="Trazado 7214" d="M18851.145,195.755h-16a.755.755,0,1,1,0-1.51h16a.755.755,0,1,1,0,1.51Z" transform="translate(-17800.645 302)" fill="rgba(0,0,0,0.6)"/>
      <path id="Trazado_7218" data-name="Trazado 7218" d="M18848.367,195.755h-13.223a.755.755,0,1,1,0-1.51h13.223a.755.755,0,1,1,0,1.51Z" transform="translate(-17800.645 314)" fill="rgba(0,0,0,0.6)" opacity="0"/>
      <path id="Trazado_7169" data-name="Trazado 7169" d="M18851.145,195.755h-16a.755.755,0,1,1,0-1.51h16a.755.755,0,1,1,0,1.51Z" transform="translate(-17775.645 278)" fill="rgba(0,0,0,0.74)"/>
      <path id="Trazado_7211" data-name="Trazado 7211" d="M18846.668,195.755h-11.523a.755.755,0,1,1,0-1.51h11.523a.755.755,0,1,1,0,1.51Z" transform="translate(-17773.406 290)" fill="rgba(0,0,0,0.6)"/>
      <path id="Trazado_7215" data-name="Trazado 7215" d="M18845.145,195.755h-10a.755.755,0,1,1,0-1.51h10a.755.755,0,1,1,0,1.51Z" transform="translate(-17772.645 302)" fill="rgba(0,0,0,0.6)"/>
      <path id="Trazado_7219" data-name="Trazado 7219" d="M18843.535,195.755h-8.391a.755.755,0,1,1,0-1.51h8.391a.755.755,0,1,1,0,1.51Z" transform="translate(-17771.84 314)" fill="rgba(0,0,0,0.6)" opacity="0"/>
      <path id="Trazado_7171" data-name="Trazado 7171" d="M18851.145,195.755h-16a.755.755,0,1,1,0-1.51h16a.755.755,0,1,1,0,1.51Z" transform="translate(-17750.645 278)" fill="rgba(0,0,0,0.74)"/>
      <path id="Trazado_7212" data-name="Trazado 7212" d="M18853.527,195.755h-18.383a.755.755,0,1,1,0-1.51h18.383a.755.755,0,1,1,0,1.51Z" transform="translate(-17751.645 290)" fill="rgba(0,0,0,0.6)"/>
      <path id="Trazado_7216" data-name="Trazado 7216" d="M18848.709,195.755h-13.564a.755.755,0,1,1,0-1.51h13.564a.755.755,0,1,1,0,1.51Z" transform="translate(-17746.645 302)" fill="rgba(0,0,0,0.6)"/>
      <path id="Trazado_7220" data-name="Trazado 7220" d="M18847.5,195.755h-12.359a.755.755,0,1,1,0-1.51h12.359a.755.755,0,1,1,0,1.51Z" transform="translate(-17745.645 314)" fill="rgba(0,0,0,0.6)" opacity="0"/>
    </g>
    <g id="Botones" transform="translate(-640 -39)">
      <rect id="Rectángulo_6435" data-name="Rectángulo 6435" width="24" height="8" rx="1" transform="translate(1041 519)" fill="#fff"/>
      <path id="Rectángulo_6435_-_Contorno" data-name="Rectángulo 6435 - Contorno" d="M1,1V7H23V1H1M1,0H23a1,1,0,0,1,1,1V7a1,1,0,0,1-1,1H1A1,1,0,0,1,0,7V1A1,1,0,0,1,1,0Z" transform="translate(1041 519)" fill="#707070"/>
      <path id="Trazado_7112" data-name="Trazado 7112" d="M18843.145,195.755h-8a.755.755,0,1,1,0-1.51h8a.755.755,0,1,1,0,1.51Z" transform="translate(-17786.145 328)" fill="rgba(0,0,0,0.74)"/>
      <rect id="Rectángulo_6435-2" data-name="Rectángulo 6435" width="24" height="8" rx="1" transform="translate(1069 519)" fill="#fff"/>
      <path id="Rectángulo_6435_-_Contorno-2" data-name="Rectángulo 6435 - Contorno" d="M1,1V7H23V1H1M1,0H23a1,1,0,0,1,1,1V7a1,1,0,0,1-1,1H1A1,1,0,0,1,0,7V1A1,1,0,0,1,1,0Z" transform="translate(1069 519)" fill="#707070"/>
      <path id="Trazado_7112-2" data-name="Trazado 7112" d="M18843.145,195.755h-8a.755.755,0,1,1,0-1.51h8a.755.755,0,1,1,0,1.51Z" transform="translate(-17758.145 328)" fill="rgba(0,0,0,0.74)"/>
    </g>
    <g id="Botones-2" data-name="Botones" transform="translate(-580 -38)">
      <rect id="Rectángulo_6435-3" data-name="Rectángulo 6435" width="24" height="8" rx="1" transform="translate(1069 529)" fill="#fff"/>
      <path id="Rectángulo_6435_-_Contorno-3" data-name="Rectángulo 6435 - Contorno" d="M1,1V7H23V1H1M1,0H23a1,1,0,0,1,1,1V7a1,1,0,0,1-1,1H1A1,1,0,0,1,0,7V1A1,1,0,0,1,1,0Z" transform="translate(1069 529)" fill="#707070"/>
      <path id="Trazado_7112-3" data-name="Trazado 7112" d="M18843.145,195.755h-8a.755.755,0,1,1,0-1.51h8a.755.755,0,1,1,0,1.51Z" transform="translate(-17758.145 338)" fill="rgba(0,0,0,0.74)"/>
      <rect id="Rectángulo_6435-4" data-name="Rectángulo 6435" width="24" height="8" rx="1" transform="translate(1069 519)" fill="#fff"/>
      <path id="Rectángulo_6435_-_Contorno-4" data-name="Rectángulo 6435 - Contorno" d="M1,1V7H23V1H1M1,0H23a1,1,0,0,1,1,1V7a1,1,0,0,1-1,1H1A1,1,0,0,1,0,7V1A1,1,0,0,1,1,0Z" transform="translate(1069 519)" fill="#707070"/>
      <path id="Trazado_7112-4" data-name="Trazado 7112" d="M18843.145,195.755h-8a.755.755,0,1,1,0-1.51h8a.755.755,0,1,1,0,1.51Z" transform="translate(-17758.145 328)" fill="rgba(0,0,0,0.74)"/>
    </g>
  </g>
</svg>
