<svg width="71" height="72" viewBox="0 0 71 72" fill="none" xmlns="http://www.w3.org/2000/svg">
<path d="M62.5476 34.2857H57.4762V20.5714C57.4762 16.8 54.4333 13.7143 50.7143 13.7143H37.1905V8.57143C37.1905 3.84 33.4038 0 28.7381 0C24.0724 0 20.2857 3.84 20.2857 8.57143V13.7143H6.7619C3.04286 13.7143 0.0338095 16.8 0.0338095 20.5714V33.6H5.07143C10.109 33.6 14.2 37.7486 14.2 42.8571C14.2 47.9657 10.109 52.1143 5.07143 52.1143H0V65.1429C0 68.9143 3.04286 72 6.7619 72H19.6095V66.8571C19.6095 61.7486 23.7005 57.6 28.7381 57.6C33.7757 57.6 37.8667 61.7486 37.8667 66.8571V72H50.7143C54.4333 72 57.4762 68.9143 57.4762 65.1429V51.4286H62.5476C67.2133 51.4286 71 47.5886 71 42.8571C71 38.1257 67.2133 34.2857 62.5476 34.2857Z" fill="black" fill-opacity="0.38"/>
<path d="M56.9762 34.2857V34.7857H57.4762H62.5476C66.9306 34.7857 70.5 38.3952 70.5 42.8571C70.5 47.319 66.9306 50.9286 62.5476 50.9286H57.4762H56.9762V51.4286V65.1429C56.9762 68.6448 54.1506 71.5 50.7143 71.5H38.3667V66.8571C38.3667 61.479 34.0584 57.1 28.7381 57.1C23.4178 57.1 19.1095 61.479 19.1095 66.8571V71.5H6.7619C3.32557 71.5 0.5 68.6448 0.5 65.1429V52.6143H5.07143C10.3918 52.6143 14.7 48.2352 14.7 42.8571C14.7 37.479 10.3918 33.1 5.07143 33.1H0.533809V20.5714C0.533809 17.0662 3.3288 14.2143 6.7619 14.2143H20.2857H20.7857V13.7143V8.57143C20.7857 4.10953 24.3551 0.5 28.7381 0.5C33.1211 0.5 36.6905 4.10953 36.6905 8.57143V13.7143V14.2143H37.1905H50.7143C54.1506 14.2143 56.9762 17.0695 56.9762 20.5714V34.2857Z" stroke="white" stroke-opacity="0.12"/>
<path d="M42.8524 52.4002H21.9107C21.507 47.2276 25.443 47.0949 27.4615 47.6752C29.48 42.2041 36.2924 43.9449 38.3108 47.6752C42.8524 46.9291 42.8524 50.1621 42.8524 52.4002Z" fill="#BCBCBC"/>
<path d="M16.4111 21.4057C22.9454 21.2537 35.2847 24.0498 32.367 36.4498C27.0484 37.2096 16.4111 35.2645 16.4111 21.4057Z" fill="#BCBCBC"/>
<path d="M46.4896 28.2664C45.2245 33.4686 40.3963 42.6386 31.2039 37.7013C31.7303 33.3321 35.5244 25.3282 46.4896 28.2664Z" fill="#BCBCBC"/>
<rect x="30.9995" y="35.0762" width="2.73529" height="15.5" fill="#BCBCBC"/>
</svg>
