<svg xmlns="http://www.w3.org/2000/svg" width="112" height="96" viewBox="0 0 112 96">
  <g id="Ilustracion_Combo" data-name="Ilustracion Combo" transform="translate(-1024 -183)">
    <rect id="Rectángulo_6422" data-name="Rectángulo 6422" width="112" height="96" rx="2" transform="translate(1024 183)" fill="#fff"/>
    <path id="Rectángulo_6422_-_Contorno" data-name="Rectángulo 6422 - Contorno" d="M2,1A1,1,0,0,0,1,2V94a1,1,0,0,0,1,1H110a1,1,0,0,0,1-1V2a1,1,0,0,0-1-1H2M2,0H110a2,2,0,0,1,2,2V94a2,2,0,0,1-2,2H2a2,2,0,0,1-2-2V2A2,2,0,0,1,2,0Z" transform="translate(1024 183)" fill="rgba(0,0,0,0.12)"/>
    <path id="Trazado_7093" data-name="Trazado 7093" d="M18931.143,195.755h-96a.755.755,0,1,1,0-1.51h96a.755.755,0,1,1,0,1.51Z" transform="translate(-17803.143 19)" fill="rgba(0,0,0,0.12)"/>
    <path id="Trazado_7092" data-name="Trazado 7092" d="M18899.145,195.755h-64a.755.755,0,1,1,0-1.51h64a.755.755,0,1,1,0,1.51Z" transform="translate(-17803.145 11)" fill="rgba(0,0,0,0.74)"/>
    <path id="Trazado_7091" data-name="Trazado 7091" d="M18851.145,195.755h-16a.755.755,0,1,1,0-1.51h16a.755.755,0,1,1,0,1.51Z" transform="translate(-17803.145 3)" fill="rgba(0,0,0,0.6)"/>
    <g id="chevron_left_black_24dp_1_" data-name="chevron_left_black_24dp (1)" transform="translate(1130 193) rotate(90)">
      <path id="Trazado_7080" data-name="Trazado 7080" d="M0,0H18V18H0Z" fill="none"/>
      <path id="Trazado_7145" data-name="Trazado 7145" d="M1116.574,203.734h8.691l-2.347-2.347-1.931-1.931Z" transform="translate(210.734 -1112.266) rotate(90)" fill="rgba(0,0,0,0.6)"/>
    </g>
    <g id="Grupo_3900" data-name="Grupo 3900" transform="translate(0 10)">
      <path id="Trazado_7084" data-name="Trazado 7084" d="M18899.145,195.755h-64a.755.755,0,1,1,0-1.51h64a.755.755,0,1,1,0,1.51Z" transform="translate(-17803.145 23.5)" fill="rgba(0,0,0,0.74)"/>
    </g>
    <g id="Grupo_3901" data-name="Grupo 3901" transform="translate(0 26)">
      <path id="Trazado_7084-2" data-name="Trazado 7084" d="M18899.145,195.755h-64a.755.755,0,1,1,0-1.51h64a.755.755,0,1,1,0,1.51Z" transform="translate(-17803.145 23.5)" fill="rgba(0,0,0,0.74)"/>
      <rect id="Rectángulo_6424" data-name="Rectángulo 6424" width="98" height="14" transform="translate(1032 211)" fill="rgba(0,0,0,0.12)"/>
    </g>
    <g id="Grupo_3902" data-name="Grupo 3902" transform="translate(0 42)">
      <path id="Trazado_7084-3" data-name="Trazado 7084" d="M18899.145,195.755h-64a.755.755,0,1,1,0-1.51h64a.755.755,0,1,1,0,1.51Z" transform="translate(-17803.145 23.5)" fill="rgba(0,0,0,0.74)"/>
    </g>
  </g>
</svg>
