<svg xmlns="http://www.w3.org/2000/svg" width="81" height="94" viewBox="0 0 81 94">
  <g id="Ilustracion_Overview_Mod._Light" data-name="Ilustracion Overview Mod. Light" transform="translate(-410 -166.983)">
    <rect id="Rectángulo_6421" data-name="Rectángulo 6421" width="73" height="88" rx="2" transform="translate(418 172.983)" fill="#fff"/>
    <path id="Rectángulo_6421_-_Contorno" data-name="Rectángulo 6421 - Contorno" d="M2,1A1,1,0,0,0,1,2V86a1,1,0,0,0,1,1H71a1,1,0,0,0,1-1V2a1,1,0,0,0-1-1H2M2,0H71a2,2,0,0,1,2,2V86a2,2,0,0,1-2,2H2a2,2,0,0,1-2-2V2A2,2,0,0,1,2,0Z" transform="translate(418 172.983)" fill="rgba(0,0,0,0.12)"/>
    <rect id="Rectángulo_6420" data-name="Rectángulo 6420" width="74" height="88" rx="2" transform="translate(410 166.983)" fill="#fff"/>
    <path id="Rectángulo_6420_-_Contorno" data-name="Rectángulo 6420 - Contorno" d="M2,1A1,1,0,0,0,1,2V86a1,1,0,0,0,1,1H72a1,1,0,0,0,1-1V2a1,1,0,0,0-1-1H2M2,0H72a2,2,0,0,1,2,2V86a2,2,0,0,1-2,2H2a2,2,0,0,1-2-2V2A2,2,0,0,1,2,0Z" transform="translate(410 166.983)" fill="rgba(0,0,0,0.12)"/>
    <g id="search-24px" transform="translate(429 178.983)">
      <path id="Trazado_7066" data-name="Trazado 7066" d="M0,0H36V36H0Z" fill="none"/>
      <path id="Trazado_7067" data-name="Trazado 7067" d="M21.2,19.015h-1.15l-.408-.393a9.478,9.478,0,1,0-1.019,1.019l.393.408V21.2l7.28,7.265,2.169-2.169Zm-8.735,0a6.552,6.552,0,1,1,6.552-6.552A6.543,6.543,0,0,1,12.463,19.015Z" transform="translate(1.855 1.855)" fill="rgba(0,0,0,0.74)"/>
    </g>
    <path id="Trazado_7068" data-name="Trazado 7068" d="M18568.326,241.75h-47.066a.75.75,0,0,1,0-1.5h47.066a.75.75,0,0,1,0,1.5Z" transform="translate(-18097.932 -16.08)" fill="rgba(0,0,0,0.74)"/>
    <path id="Trazado_7069" data-name="Trazado 7069" d="M18568.326,241.75h-47.066a.75.75,0,0,1,0-1.5h47.066a.75.75,0,0,1,0,1.5Z" transform="translate(-18097.932 -8.726)" fill="rgba(0,0,0,0.74)"/>
  </g>
</svg>
