<svg width="120" height="72" viewBox="0 0 120 72" fill="none" xmlns="http://www.w3.org/2000/svg">
<rect width="120" height="72" fill="white"/>
<rect x="0.5" y="0.5" width="119" height="71" stroke="black" stroke-opacity="0.12"/>
<rect x="24" y="24" width="24" height="24" fill="white"/>
<rect x="24.3507" y="24.3507" width="23.2986" height="23.2986" stroke="black" stroke-opacity="0.12" stroke-width="0.701363"/>
<path d="M30.7397 30.7125H41.2602V31.8905H30.7397V30.7125ZM30.7397 41.2329V40.0549H41.2602V41.2329H30.7397ZM30.7397 36.548V35.3974H41.2602V36.548H30.7397ZM37.7534 33.0412V34.2193H30.7397V33.0412H37.7534ZM37.7534 37.7261V38.9042H30.7397V37.7261H37.7534Z" fill="black" fill-opacity="0.74"/>
<rect x="48" y="24" width="24" height="24" fill="white"/>
<rect x="48.3507" y="24.3507" width="23.2986" height="23.2986" stroke="black" stroke-opacity="0.12" stroke-width="0.701363"/>
<path d="M54.7397 30.7125H65.2602V31.8905H54.7397V30.7125ZM57.0685 33.0412H62.9314V34.2193H57.0685V33.0412ZM54.7397 36.548V35.3974H65.2602V36.548H54.7397ZM54.7397 41.2329V40.0549H65.2602V41.2329H54.7397ZM57.0685 37.7261H62.9314V38.9042H57.0685V37.7261Z" fill="black" fill-opacity="0.74"/>
<rect x="72" y="24" width="24" height="24" fill="black" fill-opacity="0.74"/>
<rect x="72.3507" y="24.3507" width="23.2986" height="23.2986" stroke="black" stroke-opacity="0.12" stroke-width="0.701363"/>
<path d="M78.7397 30.7125H89.2602V31.8905H78.7397V30.7125ZM82.2465 34.2193V33.0412H89.2602V34.2193H82.2465ZM78.7397 36.548V35.3974H89.2602V36.548H78.7397ZM82.2465 38.9042V37.7261H89.2602V38.9042H82.2465ZM78.7397 41.2329V40.0549H89.2602V41.2329H78.7397Z" fill="white"/>
</svg>
