<svg xmlns="http://www.w3.org/2000/svg" xmlns:xlink="http://www.w3.org/1999/xlink" width="160" height="34" viewBox="0 0 160 34">
  <defs>
    <clipPath id="clip-path">
      <rect id="Rectángulo_6469" data-name="Rectángulo 6469" width="16" height="16" fill="rgba(0,0,0,0.74)"/>
    </clipPath>
    <clipPath id="clip-path-2">
      <rect id="Rectángulo_6469-2" data-name="Rectángulo 6469" width="14" height="14" fill="rgba(0,0,0,0.6)"/>
    </clipPath>
  </defs>
  <g id="Ilustracion_Percentage" data-name="Ilustracion Percentage" transform="translate(-687 -473)">
    <g id="ilustración_Percentage" data-name="ilustración Percentage" transform="translate(4 21)">
      <rect id="Rectángulo_6445" data-name="Rectángulo 6445" width="160" height="34" rx="2" transform="translate(683 452)" fill="#fff"/>
      <path id="Rectángulo_6445_-_Contorno" data-name="Rectángulo 6445 - Contorno" d="M2,1A1,1,0,0,0,1,2V32a1,1,0,0,0,1,1H158a1,1,0,0,0,1-1V2a1,1,0,0,0-1-1H2M2,0H158a2,2,0,0,1,2,2V32a2,2,0,0,1-2,2H2a2,2,0,0,1-2-2V2A2,2,0,0,1,2,0Z" transform="translate(683 452)" fill="rgba(0,0,0,0.12)"/>
      <path id="Trazado_7106" data-name="Trazado 7106" d="M18851.145,195.755h-16a.755.755,0,1,1,0-1.51h16a.755.755,0,1,1,0,1.51Z" transform="translate(-18144.145 265)" fill="rgba(0,0,0,0.6)"/>
      <text id="_42_50" data-name="42,50" transform="translate(691 479)" fill="rgba(0,0,0,0.74)" font-size="14" font-family="Poppins-Bold, Poppins" font-weight="700"><tspan x="0" y="0">42,50</tspan></text>
      <text id="_" data-name="*" transform="translate(711 466)" fill="rgba(0,0,0,0.74)" font-size="12" font-family="Poppins-Medium, Poppins" font-weight="500"><tspan x="0" y="0">*</tspan></text>
    </g>
    <g id="chevron_left_black_24dp_1_" data-name="chevron_left_black_24dp (1)" transform="translate(827 486) rotate(90)">
      <path id="Trazado_7080" data-name="Trazado 7080" d="M0,0H12V12H0Z" fill="none"/>
      <path id="Trazado_7157" data-name="Trazado 7157" d="M1116.574,202.871h6.939L1121.639,201l-1.542-1.542Z" transform="translate(-195.456 1125.574) rotate(-90)" fill="rgba(0,0,0,0.6)"/>
    </g>
    <g id="chevron_left_black_24dp_1_2" data-name="chevron_left_black_24dp (1)" transform="translate(815 504) rotate(-90)">
      <path id="Trazado_7080-2" data-name="Trazado 7080" d="M0,0H12V12H0Z" fill="none"/>
      <path id="Trazado_7156" data-name="Trazado 7156" d="M1116.574,202.871h6.939L1121.639,201l-1.542-1.542Z" transform="translate(-194.871 1126.515) rotate(-90)" fill="rgba(0,0,0,0.6)"/>
    </g>
    <g id="Grupo_3937" data-name="Grupo 3937" transform="translate(726 523)">
      <g id="Grupo_3936" data-name="Grupo 3936" transform="translate(13 -37)" clip-path="url(#clip-path)">
        <path id="Trazado_7174" data-name="Trazado 7174" d="M4.667,7A2.334,2.334,0,1,0,2.333,4.667,2.333,2.333,0,0,0,4.667,7m0-3.334a1,1,0,1,1-1,1,1,1,0,0,1,1-1" transform="translate(0.333 0.333)" fill="rgba(0,0,0,0.74)"/>
        <rect id="Rectángulo_6468" data-name="Rectángulo 6468" width="13.753" height="1.333" transform="translate(2.668 12.389) rotate(-45)" fill="rgba(0,0,0,0.74)"/>
        <path id="Trazado_7175" data-name="Trazado 7175" d="M9.917,7.583A2.334,2.334,0,1,0,12.25,9.917,2.333,2.333,0,0,0,9.917,7.583m0,3.334a1,1,0,1,1,1-1,1,1,0,0,1-1,1" transform="translate(1.083 1.083)" fill="rgba(0,0,0,0.74)"/>
      </g>
    </g>
    <g id="Grupo_3938" data-name="Grupo 3938" transform="translate(814 525)">
      <g id="Grupo_3936-2" data-name="Grupo 3936" transform="translate(13 -37)" clip-path="url(#clip-path-2)">
        <path id="Trazado_7174-2" data-name="Trazado 7174" d="M4.375,6.417A2.042,2.042,0,1,0,2.333,4.375,2.042,2.042,0,0,0,4.375,6.417m0-2.917a.875.875,0,1,1-.875.875A.875.875,0,0,1,4.375,3.5" fill="rgba(0,0,0,0.6)"/>
        <rect id="Rectángulo_6468-2" data-name="Rectángulo 6468" width="12.034" height="1.167" transform="translate(2.335 10.84) rotate(-45)" fill="rgba(0,0,0,0.6)"/>
        <path id="Trazado_7175-2" data-name="Trazado 7175" d="M9.625,7.583a2.042,2.042,0,1,0,2.042,2.042A2.042,2.042,0,0,0,9.625,7.583m0,2.917a.875.875,0,1,1,.875-.875.875.875,0,0,1-.875.875" fill="rgba(0,0,0,0.6)"/>
      </g>
    </g>
  </g>
</svg>
