<svg width="62" height="76" viewBox="0 0 62 76" fill="none" xmlns="http://www.w3.org/2000/svg">
<path d="M22.3718 0.00149344C24.6016 0.00149344 26.8328 0.00149344 29.0625 0.00149344C29.9914 0.080646 30.9188 0.174733 31.8477 0.237458C35.2856 0.471928 38.6847 0.951324 42.0241 1.80557C44.4569 2.42834 46.8404 3.20045 48.9193 4.66253C50.3291 5.65268 51.4148 6.84296 51.4118 8.74411C51.3954 23.2708 51.4044 37.7991 51.3999 52.3258C51.3999 52.6409 51.3805 52.962 51.3163 53.2696C51.0236 54.672 50.0558 55.586 48.9551 56.3671C47.1331 57.6619 45.0572 58.4086 42.9276 59.006C38.1501 60.3441 33.2516 60.8728 28.3142 61.0191C22.2927 61.1968 16.3025 60.8399 10.4094 59.4883C7.63155 58.8507 4.91199 58.0382 2.52546 56.4014C0.912544 55.2948 -0.00742211 53.8924 4.5107e-05 51.7882C0.0553025 37.5392 0.0284253 23.2903 0.0329056 9.04131C0.0329056 8.62613 0.0329038 8.20199 0.115043 7.79876C0.401784 6.37252 1.39343 5.45256 2.51351 4.65954C4.10254 3.53199 5.89915 2.83605 7.74953 2.27153C11.5309 1.11859 15.4184 0.557055 19.3491 0.244925C20.3572 0.164279 21.3653 0.0821394 22.3733 0L22.3718 0.00149344ZM2.53293 12.5225C2.5165 12.6614 2.49858 12.7391 2.49858 12.8167C2.49709 16.2128 2.47468 19.6104 2.52247 23.0065C2.52845 23.4695 2.7898 24.0116 3.10193 24.3715C3.95469 25.3542 5.13749 25.8769 6.3188 26.3518C10.2271 27.9229 14.3371 28.6398 18.5038 28.9504C21.6923 29.1879 24.9032 29.2446 28.1022 29.2207C32.926 29.1849 37.6976 28.6144 42.3556 27.3016C44.2881 26.7565 46.1818 26.0935 47.8201 24.8733C48.5848 24.3043 48.9716 23.6024 48.9566 22.5943C48.9073 19.4566 48.9387 16.3174 48.9372 13.1796C48.9372 12.9735 48.9193 12.766 48.9073 12.4792C48.5385 12.6883 48.2592 12.875 47.9575 13.0109C46.8031 13.5351 45.674 14.1354 44.4778 14.5402C39.4643 16.2367 34.2552 16.8192 29.0012 17.0312C24.2028 17.2254 19.4148 17.0432 14.6582 16.3263C11.3144 15.8215 8.01238 15.142 4.90751 13.7427C4.11748 13.3857 3.36179 12.9526 2.53143 12.524L2.53293 12.5225ZM48.9387 41.7627C48.6221 41.9449 48.4294 42.0763 48.2189 42.1704C46.9569 42.7439 45.7278 43.4189 44.4195 43.858C39.1133 45.6426 33.601 46.1982 28.0439 46.367C23.3635 46.5088 18.6965 46.2803 14.0668 45.5381C11.0829 45.0587 8.13185 44.4404 5.34359 43.2292C4.40421 42.8215 3.50217 42.3317 2.54338 41.8597C2.52546 41.9867 2.49709 42.0972 2.49709 42.2062C2.49559 45.5844 2.47468 48.9611 2.52098 52.3377C2.52695 52.7843 2.77786 53.307 3.07804 53.6535C3.96066 54.6675 5.17931 55.2037 6.40095 55.686C10.9261 57.4737 15.6842 58.1607 20.4961 58.4041C23.7697 58.5699 27.0612 58.5266 30.3394 58.4295C34.3612 58.3115 38.3323 57.7321 42.2152 56.6418C44.1896 56.0878 46.1221 55.4217 47.8007 54.1911C48.5668 53.6296 48.979 52.9321 48.9551 51.9211C48.8999 49.6376 48.9387 47.3526 48.9387 45.0677V41.7612V41.7627ZM48.9387 27.1374C48.6714 27.2748 48.4937 27.3524 48.3309 27.4525C46.5208 28.5666 44.5375 29.261 42.499 29.8062C38.4308 30.8964 34.2776 31.4116 30.0795 31.6222C24.2177 31.9164 18.3858 31.6954 12.6047 30.632C9.15486 29.9973 5.77669 29.1296 2.75097 27.2539C2.69572 27.2195 2.61358 27.2285 2.52845 27.2165C2.51501 27.3285 2.49858 27.4062 2.49858 27.4838C2.49709 30.8814 2.47618 34.279 2.52098 37.6766C2.52695 38.1231 2.77487 38.6458 3.07355 38.9938C3.93677 39.9989 5.136 40.5306 6.33822 41.0115C10.3063 42.6005 14.4775 43.3114 18.7069 43.619C21.8387 43.846 24.9898 43.9102 28.1306 43.8774C32.9141 43.8266 37.6498 43.2725 42.272 41.9762C44.2075 41.4326 46.1012 40.774 47.7529 39.5778C48.5579 38.9953 48.979 38.2725 48.9596 37.2121C48.9044 34.0938 48.9402 30.974 48.9402 27.8542C48.9402 27.6451 48.9402 27.4361 48.9402 27.1374H48.9387ZM25.5902 14.6477C29.5015 14.6223 33.2531 14.4177 36.9717 13.8233C39.7585 13.3783 42.5124 12.7809 45.1334 11.6937C46.3297 11.1978 47.502 10.6468 48.4055 9.67901C49.109 8.92631 49.0985 8.16316 48.3936 7.41346C48.1771 7.18346 47.953 6.92809 47.6797 6.7892C46.3924 6.13656 45.1349 5.37938 43.7789 4.91642C38.7489 3.19597 33.5129 2.66132 28.2336 2.506C23.7742 2.37458 19.3237 2.54035 14.9031 3.21538C11.973 3.66342 9.08168 4.26976 6.32776 5.39432C5.1121 5.89014 3.91884 6.44869 3.00784 7.44482C2.35371 8.16018 2.31787 8.92183 2.98246 9.61778C3.38867 10.0434 3.86956 10.4183 4.37136 10.7274C6.07836 11.7803 7.97205 12.3836 9.8971 12.881C15.0913 14.2221 20.396 14.6059 25.5887 14.6507L25.5902 14.6477Z" fill="white" fill-opacity="0.6"/>
<path d="M2.53477 12.523C2.53436 12.5228 2.53395 12.5226 2.53353 12.5223L2.53503 12.5208C2.53494 12.5216 2.53486 12.5223 2.53477 12.523ZM2.53477 12.523C2.52881 12.5731 2.52267 12.6152 2.51726 12.6523C2.50784 12.7169 2.50068 12.766 2.50068 12.8151C2.50034 13.5945 2.49889 14.374 2.49745 15.1536C2.4926 17.7707 2.48775 20.3882 2.52457 23.0048C2.53055 23.4678 2.7919 24.0099 3.10403 24.3698C3.95678 25.3525 5.13959 25.8752 6.3209 26.3501C10.2292 27.9212 14.3392 28.6381 18.5059 28.9487C21.6944 29.1862 24.9053 29.2429 28.1043 29.219C32.9281 29.1832 37.7011 28.6142 42.3577 27.3C44.2902 26.7549 46.1839 26.0933 47.8222 24.8716C48.5869 24.3026 48.9751 23.6007 48.9587 22.5926C48.9237 20.3633 48.9294 18.134 48.9351 15.9041C48.9374 14.9955 48.9397 14.0868 48.9393 13.178C48.9393 13.0356 48.9315 12.8925 48.9222 12.7231C48.918 12.6473 48.9136 12.5662 48.9094 12.4775C48.7901 12.5452 48.6802 12.6103 48.5759 12.6721C48.3576 12.8014 48.1637 12.9162 47.9596 13.0092C47.6371 13.1557 47.3165 13.308 46.996 13.4605C46.1691 13.8536 45.3419 14.2468 44.4799 14.5385C39.4664 16.235 34.2573 16.8175 29.0033 17.0296C24.2049 17.2237 19.4169 17.0415 14.6603 16.3247C11.3165 15.8199 8.01447 15.1403 4.9096 13.741C4.37174 13.498 3.84981 13.2197 3.3094 12.9315C3.05642 12.7966 2.79938 12.6596 2.53477 12.523Z" fill="#2B3034"/>
<path d="M2.53477 12.523C2.53436 12.5228 2.53395 12.5226 2.53353 12.5223L2.53503 12.5208C2.53494 12.5216 2.53486 12.5223 2.53477 12.523ZM2.53477 12.523C2.52881 12.5731 2.52267 12.6152 2.51726 12.6523C2.50784 12.7169 2.50068 12.766 2.50068 12.8151C2.50034 13.5945 2.49889 14.374 2.49745 15.1536C2.4926 17.7707 2.48775 20.3882 2.52457 23.0048C2.53055 23.4678 2.7919 24.0099 3.10403 24.3698C3.95678 25.3525 5.13959 25.8752 6.3209 26.3501C10.2292 27.9212 14.3392 28.6381 18.5059 28.9487C21.6944 29.1862 24.9053 29.2429 28.1043 29.219C32.9281 29.1832 37.7011 28.6142 42.3577 27.3C44.2902 26.7549 46.1839 26.0933 47.8222 24.8716C48.5869 24.3026 48.9751 23.6007 48.9587 22.5926C48.9237 20.3633 48.9294 18.134 48.9351 15.9041C48.9374 14.9955 48.9397 14.0868 48.9393 13.178C48.9393 13.0356 48.9315 12.8925 48.9222 12.7231C48.918 12.6473 48.9136 12.5662 48.9094 12.4775C48.7901 12.5452 48.6802 12.6103 48.5759 12.6721C48.3576 12.8014 48.1637 12.9162 47.9596 13.0092C47.6371 13.1557 47.3165 13.308 46.996 13.4605C46.1691 13.8536 45.3419 14.2468 44.4799 14.5385C39.4664 16.235 34.2573 16.8175 29.0033 17.0296C24.2049 17.2237 19.4169 17.0415 14.6603 16.3247C11.3165 15.8199 8.01447 15.1403 4.9096 13.741C4.37174 13.498 3.84981 13.2197 3.3094 12.9315C3.05642 12.7966 2.79938 12.6596 2.53477 12.523Z" stroke="white"/>
<path d="M48.9388 41.7642V45.0692C48.9388 45.7334 48.9357 46.3976 48.9325 47.0618C48.9248 48.6825 48.9171 50.3029 48.9553 51.9226C48.9792 52.9337 48.567 53.6311 47.8008 54.1926C46.1222 55.4247 44.1897 56.0893 42.2153 56.6434C38.3324 57.7336 34.3613 58.313 30.3395 58.431C27.0599 58.5281 23.7698 58.5714 20.4962 58.4056C15.6843 58.1622 10.9262 57.4737 6.40107 55.6876C5.17794 55.2052 3.96078 54.669 3.07816 53.655C2.77648 53.31 2.52707 52.7858 2.5211 52.3393C2.48518 49.7195 2.48971 47.0988 2.49425 44.4785C2.49556 43.7216 2.49687 42.9646 2.4972 42.2077C2.4972 42.1328 2.51025 42.0586 2.52423 41.979C2.53087 41.9412 2.53773 41.9021 2.5435 41.8613C2.84628 42.0103 3.14355 42.1611 3.43813 42.3106C4.07638 42.6344 4.702 42.9518 5.34371 43.2307C8.13197 44.4419 11.083 45.0602 14.0669 45.5396C18.6981 46.2834 23.3651 46.5118 28.0441 46.3685C33.6012 46.1997 39.1135 45.6442 44.4197 43.8595C45.3362 43.5509 46.2138 43.1279 47.0911 42.7051C47.4661 42.5243 47.8411 42.3436 48.219 42.1719C48.3529 42.1107 48.4801 42.0347 48.6379 41.9405C48.7264 41.8877 48.8245 41.8291 48.9388 41.7642Z" fill="#2B3034"/>
<path d="M48.9388 41.7642V45.0692C48.9388 45.7334 48.9357 46.3976 48.9325 47.0618C48.9248 48.6825 48.9171 50.3029 48.9553 51.9226C48.9792 52.9337 48.567 53.6311 47.8008 54.1926C46.1222 55.4247 44.1897 56.0893 42.2153 56.6434C38.3324 57.7336 34.3613 58.313 30.3395 58.431C27.0599 58.5281 23.7698 58.5714 20.4962 58.4056C15.6843 58.1622 10.9262 57.4737 6.40107 55.6876C5.17794 55.2052 3.96078 54.669 3.07816 53.655C2.77648 53.31 2.52707 52.7858 2.5211 52.3393C2.48518 49.7195 2.48971 47.0988 2.49425 44.4785C2.49556 43.7216 2.49687 42.9646 2.4972 42.2077C2.4972 42.1328 2.51025 42.0586 2.52423 41.979C2.53087 41.9412 2.53773 41.9021 2.5435 41.8613C2.84628 42.0103 3.14355 42.1611 3.43813 42.3106C4.07638 42.6344 4.702 42.9518 5.34371 43.2307C8.13197 44.4419 11.083 45.0602 14.0669 45.5396C18.6981 46.2834 23.3651 46.5118 28.0441 46.3685C33.6012 46.1997 39.1135 45.6442 44.4197 43.8595C45.3362 43.5509 46.2138 43.1279 47.0911 42.7051C47.4661 42.5243 47.8411 42.3436 48.219 42.1719C48.3529 42.1107 48.4801 42.0347 48.6379 41.9405C48.7264 41.8877 48.8245 41.8291 48.9388 41.7642Z" stroke="white"/>
<path d="M48.938 27.1377V27.8545C48.938 28.7355 48.9352 29.6164 48.9323 30.4972C48.925 32.736 48.9178 34.9746 48.9574 37.2125C48.9768 38.2728 48.5557 38.9956 47.7507 39.5781C46.0975 40.7743 44.2053 41.4344 42.2698 41.9766C37.6476 43.2729 32.9119 43.8269 28.1284 43.8777C24.9877 43.9106 21.8365 43.8478 18.7047 43.6193C14.4768 43.3117 10.3041 42.6008 6.33605 41.0118C5.13532 40.5309 3.93458 39.9992 3.07137 38.9941C2.77269 38.6462 2.52477 38.1235 2.5188 37.6769C2.48421 35.0544 2.48879 32.4318 2.49336 29.8092C2.49471 29.0342 2.49606 28.2592 2.4964 27.4842C2.4964 27.4359 2.50333 27.3876 2.51144 27.3311C2.51638 27.2967 2.52175 27.2592 2.52627 27.2168C2.55461 27.2214 2.58296 27.2232 2.61019 27.225C2.66333 27.2283 2.71226 27.2315 2.74879 27.2542C5.776 29.1314 9.15417 29.9976 12.6025 30.6324C18.3837 31.6957 24.2156 31.9182 30.0773 31.6225C34.2769 31.4119 38.4301 30.8967 42.4968 29.8065C44.5353 29.2599 46.5172 28.5669 48.3287 27.4528C48.4359 27.3869 48.5495 27.3308 48.691 27.2609C48.7643 27.2246 48.8452 27.1846 48.9365 27.1377H48.938Z" fill="#2B3034"/>
<path d="M48.938 27.1377V27.8545C48.938 28.7355 48.9352 29.6164 48.9323 30.4972C48.925 32.736 48.9178 34.9746 48.9574 37.2125C48.9768 38.2728 48.5557 38.9956 47.7507 39.5781C46.0975 40.7743 44.2053 41.4344 42.2698 41.9766C37.6476 43.2729 32.9119 43.8269 28.1284 43.8777C24.9877 43.9106 21.8365 43.8478 18.7047 43.6193C14.4768 43.3117 10.3041 42.6008 6.33605 41.0118C5.13532 40.5309 3.93458 39.9992 3.07137 38.9941C2.77269 38.6462 2.52477 38.1235 2.5188 37.6769C2.48421 35.0544 2.48879 32.4318 2.49336 29.8092C2.49471 29.0342 2.49606 28.2592 2.4964 27.4842C2.4964 27.4359 2.50333 27.3876 2.51144 27.3311C2.51638 27.2967 2.52175 27.2592 2.52627 27.2168C2.55461 27.2214 2.58296 27.2232 2.61019 27.225C2.66333 27.2283 2.71226 27.2315 2.74879 27.2542C5.776 29.1314 9.15417 29.9976 12.6025 30.6324C18.3837 31.6957 24.2156 31.9182 30.0773 31.6225C34.2769 31.4119 38.4301 30.8967 42.4968 29.8065C44.5353 29.2599 46.5172 28.5669 48.3287 27.4528C48.4359 27.3869 48.5495 27.3308 48.691 27.2609C48.7643 27.2246 48.8452 27.1846 48.9365 27.1377H48.938Z" stroke="white"/>
<path d="M25.5903 14.6479C20.3976 14.6046 15.0929 14.2193 9.89869 12.8782C7.97364 12.3808 6.07995 11.7775 4.37294 10.7246C3.87115 10.4155 3.38877 10.0406 2.98404 9.61498C2.31946 8.91904 2.3553 8.15738 3.00943 7.44202C3.92043 6.44589 5.11369 5.88884 6.32935 5.39152C9.08326 4.26696 11.9746 3.65913 14.9047 3.21259C19.3253 2.53755 23.7743 2.37178 28.2352 2.5032C33.5145 2.65852 38.7505 3.19317 43.7804 4.91362C44.7878 5.25866 45.7408 5.76441 46.6921 6.26925C47.0213 6.44397 47.3503 6.61859 47.6813 6.7864C47.9291 6.91234 48.1364 7.13405 48.3344 7.34577C48.3547 7.36754 48.375 7.38921 48.3952 7.41066C49.1001 8.15887 49.1091 8.92352 48.4071 9.67621C47.5036 10.644 46.3312 11.195 45.135 11.6909C42.514 12.7781 39.7616 13.3755 36.9733 13.8205C33.2532 14.4149 29.5016 14.6195 25.5918 14.6449L25.5903 14.6479Z" fill="#2B3034"/>
<path d="M25.5903 14.6479C20.3976 14.6046 15.0929 14.2193 9.89869 12.8782C7.97364 12.3808 6.07995 11.7775 4.37294 10.7246C3.87115 10.4155 3.38877 10.0406 2.98404 9.61498C2.31946 8.91904 2.3553 8.15738 3.00943 7.44202C3.92043 6.44589 5.11369 5.88884 6.32935 5.39152C9.08326 4.26696 11.9746 3.65913 14.9047 3.21259C19.3253 2.53755 23.7743 2.37178 28.2352 2.5032C33.5145 2.65852 38.7505 3.19317 43.7804 4.91362C44.7878 5.25866 45.7408 5.76441 46.6921 6.26925C47.0213 6.44397 47.3503 6.61859 47.6813 6.7864C47.9291 6.91234 48.1364 7.13405 48.3344 7.34577C48.3547 7.36754 48.375 7.38921 48.3952 7.41066C49.1001 8.15887 49.1091 8.92352 48.4071 9.67621C47.5036 10.644 46.3312 11.195 45.135 11.6909C42.514 12.7781 39.7616 13.3755 36.9733 13.8205C33.2532 14.4149 29.5016 14.6195 25.5918 14.6449L25.5903 14.6479Z" stroke="white"/>
<rect x="45.6587" y="55.2129" width="14.4676" height="6.21551" rx="1.86465" transform="rotate(71.7957 45.6587 55.2129)" fill="#2B3034"/>
<rect x="45.1805" y="56.1597" width="12.9676" height="4.71551" rx="1.11465" transform="rotate(71.7957 45.1805 56.1597)" stroke="white" stroke-opacity="0.6" stroke-width="1.5"/>
<circle cx="38.4001" cy="46.4001" r="16.1603" transform="rotate(-18.2043 38.4001 46.4001)" fill="#2B3034"/>
<circle cx="38.4001" cy="46.4001" r="15.4103" transform="rotate(-18.2043 38.4001 46.4001)" stroke="white" stroke-opacity="0.6" stroke-width="1.5"/>
<circle cx="38.4" cy="46.3999" r="11.1879" transform="rotate(-18.2043 38.4 46.3999)" fill="#2B3034"/>
<circle cx="38.4" cy="46.3999" r="10.4379" transform="rotate(-18.2043 38.4 46.3999)" stroke="white" stroke-opacity="0.6" stroke-width="1.5"/>
<path d="M40.5842 45.3627L41.8367 44.9508L42.7304 47.6681L41.4779 48.08L40.5842 45.3627ZM36.8499 42.5916L38.1237 42.1727L40.2041 48.4989L38.9304 48.9178L36.8499 42.5916ZM34.945 45.3117L36.3037 44.8649L37.7628 49.3018L36.4042 49.7486L34.945 45.3117Z" fill="white" fill-opacity="0.6"/>
<path d="M32.3252 41.855L35.5162 51.5579L45.5537 48.2569" stroke="white" stroke-opacity="0.6" stroke-width="1.2"/>
</svg>
