<svg width="120" height="72" viewBox="0 0 120 72" fill="none" xmlns="http://www.w3.org/2000/svg">
<rect width="120" height="72" rx="4" fill="white"/>
<rect x="0.3125" y="0.3125" width="119.375" height="71.375" rx="3.6875" stroke="black" stroke-opacity="0.12" stroke-width="0.625"/>
<g filter="url(#filter0_d_148_328)">
<rect x="40" y="16" width="40" height="40" rx="3.33333" fill="black" fill-opacity="0.74" shape-rendering="crispEdges"/>
<path d="M50.1875 40.3541H68.8125L62.8125 32.3541L58.1875 38.3541L54.8125 34.3541L50.1875 40.3541ZM71.5 21.6666C72.1667 21.6666 72.7708 21.9583 73.3125 22.5416C73.8958 23.0833 74.1875 23.6875 74.1875 24.3541V42.9791C74.1875 43.6458 73.8958 44.2708 73.3125 44.8541C72.7708 45.3958 72.1667 45.6666 71.5 45.6666H47.5C46.7917 45.6666 46.1667 45.3958 45.625 44.8541C45.0833 44.3125 44.8125 43.6875 44.8125 42.9791V24.3541C44.8125 23.6875 45.0833 23.0833 45.625 22.5416C46.2083 21.9583 46.8333 21.6666 47.5 21.6666H71.5Z" fill="white"/>
</g>
<defs>
<filter id="filter0_d_148_328" x="36.6667" y="16" width="46.6667" height="46.6667" filterUnits="userSpaceOnUse" color-interpolation-filters="sRGB">
<feFlood flood-opacity="0" result="BackgroundImageFix"/>
<feColorMatrix in="SourceAlpha" type="matrix" values="0 0 0 0 0 0 0 0 0 0 0 0 0 0 0 0 0 0 127 0" result="hardAlpha"/>
<feOffset dy="3.33333"/>
<feGaussianBlur stdDeviation="1.66667"/>
<feComposite in2="hardAlpha" operator="out"/>
<feColorMatrix type="matrix" values="0 0 0 0 0 0 0 0 0 0 0 0 0 0 0 0 0 0 0.25 0"/>
<feBlend mode="normal" in2="BackgroundImageFix" result="effect1_dropShadow_148_328"/>
<feBlend mode="normal" in="SourceGraphic" in2="effect1_dropShadow_148_328" result="shape"/>
</filter>
</defs>
</svg>
