<svg width="120" height="72" viewBox="0 0 120 72" fill="none" xmlns="http://www.w3.org/2000/svg">
<rect width="120" height="72" rx="4" fill="#121212"/>
<rect width="120" height="72" rx="4" fill="white" fill-opacity="0.16"/>
<rect width="120" height="72" rx="4" fill="#1464A5" fill-opacity="0.06"/>
<rect x="0.3125" y="0.3125" width="119.375" height="71.375" rx="3.6875" stroke="white" stroke-opacity="0.12" stroke-width="0.625"/>
<g filter="url(#filter0_d_148_633)">
<rect x="40" y="16" width="40" height="40" rx="3.33333" fill="#2D3236" shape-rendering="crispEdges"/>
</g>
<path d="M50.375 42.6875H69L63 34.6875L58.375 40.6875L55 36.6875L50.375 42.6875ZM71.6875 24C72.3542 24 72.9583 24.2917 73.5 24.875C74.0833 25.4167 74.375 26.0208 74.375 26.6875V45.3125C74.375 45.9792 74.0833 46.6042 73.5 47.1875C72.9583 47.7292 72.3542 48 71.6875 48H47.6875C46.9792 48 46.3542 47.7292 45.8125 47.1875C45.2708 46.6458 45 46.0208 45 45.3125V26.6875C45 26.0208 45.2708 25.4167 45.8125 24.875C46.3958 24.2917 47.0208 24 47.6875 24H71.6875Z" fill="white" fill-opacity="0.74"/>
<defs>
<filter id="filter0_d_148_633" x="36.6667" y="16" width="46.6667" height="46.6667" filterUnits="userSpaceOnUse" color-interpolation-filters="sRGB">
<feFlood flood-opacity="0" result="BackgroundImageFix"/>
<feColorMatrix in="SourceAlpha" type="matrix" values="0 0 0 0 0 0 0 0 0 0 0 0 0 0 0 0 0 0 127 0" result="hardAlpha"/>
<feOffset dy="3.33333"/>
<feGaussianBlur stdDeviation="1.66667"/>
<feComposite in2="hardAlpha" operator="out"/>
<feColorMatrix type="matrix" values="0 0 0 0 0 0 0 0 0 0 0 0 0 0 0 0 0 0 0.25 0"/>
<feBlend mode="normal" in2="BackgroundImageFix" result="effect1_dropShadow_148_633"/>
<feBlend mode="normal" in="SourceGraphic" in2="effect1_dropShadow_148_633" result="shape"/>
</filter>
</defs>
</svg>
