<svg width="92" height="92" viewBox="0 0 92 92" fill="none" xmlns="http://www.w3.org/2000/svg">
<rect x="1" y="1" width="90" height="90" rx="45" fill="black" fill-opacity="0.38"/>
<rect x="0.5" y="0.5" width="91" height="91" rx="45.5" stroke="white" stroke-opacity="0.12"/>
<circle cx="21.3541" cy="34.127" r="3.43652" fill="white" fill-opacity="0.74"/>
<circle cx="21.3541" cy="46" r="3.43652" fill="white" fill-opacity="0.74"/>
<circle cx="21.3541" cy="57.873" r="3.43652" fill="white" fill-opacity="0.74"/>
<path d="M30.7906 33.9932C30.7906 32.6545 31.8759 31.5693 33.2145 31.5693H71.6586C72.9973 31.5693 74.0825 32.6545 74.0825 33.9932C74.0825 35.3319 72.9973 36.4171 71.6586 36.4171H33.2145C31.8759 36.4171 30.7906 35.3319 30.7906 33.9932ZM33.1582 48.3675C31.8506 48.3675 30.7906 47.3075 30.7906 46C30.7906 44.6924 31.8506 43.6324 33.1582 43.6324H71.715C73.0225 43.6324 74.0825 44.6924 74.0825 46C74.0825 47.3075 73.0225 48.3675 71.715 48.3675H33.1582ZM33.2145 60.4306C31.8759 60.4306 30.7906 59.3454 30.7906 58.0067C30.7906 56.668 31.8759 55.5828 33.2145 55.5828H71.6586C72.9973 55.5828 74.0825 56.668 74.0825 58.0067C74.0825 59.3454 72.9973 60.4306 71.6586 60.4306H33.2145Z" fill="white" fill-opacity="0.74"/>
</svg>
