<svg xmlns="http://www.w3.org/2000/svg" width="112" height="96" viewBox="0 0 112 96">
  <g id="Ilustracion_HTML" data-name="Ilustracion HTML" transform="translate(-1024 -443)">
    <path id="Trazado_7172" data-name="Trazado 7172" d="M2,0H110a2,2,0,0,1,2,2V94a2,2,0,0,1-2,2H2a2,2,0,0,1-2-2V2A2,2,0,0,1,2,0Z" transform="translate(1024 443)" fill="#fff"/>
    <path id="Trazado_7172_-_Contorno" data-name="Trazado 7172 - Contorno" d="M2,1A1,1,0,0,0,1,2V94a1,1,0,0,0,1,1H110a1,1,0,0,0,1-1V2a1,1,0,0,0-1-1H2M2,0H110a2,2,0,0,1,2,2V94a2,2,0,0,1-2,2H2a2,2,0,0,1-2-2V2A2,2,0,0,1,2,0Z" transform="translate(1024 443)" fill="rgba(0,0,0,0.12)"/>
    <path id="Trazado_7110" data-name="Trazado 7110" d="M18931.143,195.755h-96a.755.755,0,1,1,0-1.51h96a.755.755,0,1,1,0,1.51Z" transform="translate(-17803.143 272)" fill="rgba(0,0,0,0.12)"/>
    <path id="Trazado_7113" data-name="Trazado 7113" d="M18883.145,195.755h-48a.755.755,0,1,1,0-1.51h48a.755.755,0,1,1,0,1.51Z" transform="translate(1323 -18354.143) rotate(90)" fill="rgba(0,0,0,0.16)"/>
    <path id="Trazado_7111" data-name="Trazado 7111" d="M18875.145,195.755h-40a.755.755,0,1,1,0-1.51h40a.755.755,0,1,1,0,1.51Z" transform="translate(-17802.645 256)" fill="rgba(0,0,0,0.74)"/>
    <path id="Trazado_7168" data-name="Trazado 7168" d="M18851.145,195.755h-16a.755.755,0,1,1,0-1.51h16a.755.755,0,1,1,0,1.51Z" transform="translate(-17802.645 264)" fill="rgba(0,0,0,0.74)"/>
    <path id="Trazado_7166" data-name="Trazado 7166" d="M18851.145,195.755h-16a.755.755,0,1,1,0-1.51h16a.755.755,0,1,1,0,1.51Z" transform="translate(-17754.145 256)" fill="rgba(0,0,0,0.74)"/>
    <path id="Trazado_7169" data-name="Trazado 7169" d="M18851.145,195.755h-16a.755.755,0,1,1,0-1.51h16a.755.755,0,1,1,0,1.51Z" transform="translate(-17781.645 264)" fill="rgba(0,0,0,0.74)"/>
    <path id="Trazado_7171" data-name="Trazado 7171" d="M18851.145,195.755h-16a.755.755,0,1,1,0-1.51h16a.755.755,0,1,1,0,1.51Z" transform="translate(-17761.645 264)" fill="rgba(0,0,0,0.74)"/>
    <g id="Grupo_3908" data-name="Grupo 3908" transform="translate(2.002 267.5)">
      <path id="Trazado_7084" data-name="Trazado 7084" d="M18891.143,195.755h-56a.755.755,0,1,1,0-1.51h56a.755.755,0,1,1,0,1.51Z" transform="translate(-17803.145 24)" fill="rgba(0,0,0,0.74)"/>
    </g>
    <g id="Grupo_3909" data-name="Grupo 3909" transform="translate(2 279.5)">
      <path id="Trazado_7084-2" data-name="Trazado 7084" d="M18881.143,195.755h-46a.755.755,0,1,1,0-1.51h46a.755.755,0,1,1,0,1.51Z" transform="translate(-17803.143 23.5)" fill="rgba(0,0,0,0.74)"/>
    </g>
    <g id="Grupo_3910" data-name="Grupo 3910" transform="translate(-6 291.5)">
      <path id="Trazado_7084-3" data-name="Trazado 7084" d="M18869.145,195.755h-34a.755.755,0,1,1,0-1.51h34a.755.755,0,1,1,0,1.51Z" transform="translate(-17795.145 24.5)" fill="rgba(0,0,0,0.74)"/>
    </g>
    <g id="Grupo_3933" data-name="Grupo 3933" transform="translate(-6 304.5)">
      <path id="Trazado_7084-4" data-name="Trazado 7084" d="M18855.145,195.755h-20a.755.755,0,1,1,0-1.51h20a.755.755,0,1,1,0,1.51Z" transform="translate(-17795.145 23.5)" fill="rgba(0,0,0,0.74)"/>
    </g>
    <text id="h1" transform="translate(1094 488)" fill="rgba(0,0,0,0.74)" font-size="14" font-family="Poppins-Medium, Poppins" font-weight="500"><tspan x="0" y="0">h1</tspan></text>
    <text id="h2" transform="translate(1084 502)" fill="rgba(0,0,0,0.74)" font-size="11" font-family="Poppins-Medium, Poppins" font-weight="500"><tspan x="0" y="0">h2</tspan></text>
    <text id="h3" transform="translate(1072 514)" fill="rgba(0,0,0,0.74)" font-size="9" font-family="Poppins-Medium, Poppins" font-weight="500"><tspan x="0" y="0">h3</tspan></text>
    <text id="h4" transform="translate(1058 525)" fill="rgba(0,0,0,0.74)" font-size="7" font-family="Poppins-Medium, Poppins" font-weight="500"><tspan x="0" y="0">h4</tspan></text>
    <g id="Grupo_3944" data-name="Grupo 3944" transform="translate(1115.166 448.292)">
      <path id="Trazado_7181" data-name="Trazado 7181" d="M5.484,9.683,2.8,7,5.484,4.316,4.667,3.5,1.167,7l3.5,3.5Zm3.033,0L11.2,7,8.517,4.316,9.334,3.5l3.5,3.5-3.5,3.5Z" fill="rgba(0,0,0,0.6)"/>
      <rect id="Rectángulo_6471" data-name="Rectángulo 6471" width="10.508" height="1.055" transform="translate(5.209 11.9) rotate(-75.924)" fill="rgba(0,0,0,0.6)"/>
    </g>
  </g>
</svg>
