<svg xmlns="http://www.w3.org/2000/svg" xmlns:xlink="http://www.w3.org/1999/xlink" width="160" height="37" viewBox="0 0 160 37">
  <defs>
    <clipPath id="clip-path">
      <rect id="Rectángulo_6467" data-name="Rectángulo 6467" width="14" height="14" fill="rgba(255,255,255,0.6)"/>
    </clipPath>
  </defs>
  <g id="Ilustracion_Password" data-name="Ilustracion Password" transform="translate(-683 -452)">
    <g id="BG">
      <rect id="Rectángulo_121212" data-name="Rectángulo #121212" width="160" height="34" rx="2" transform="translate(683 452)" fill="#121212"/>
      <path id="Rectángulo_121212_-_Contorno" data-name="Rectángulo #121212 - Contorno" d="M2,1A1,1,0,0,0,1,2V32a1,1,0,0,0,1,1H158a1,1,0,0,0,1-1V2a1,1,0,0,0-1-1H2M2,0H158a2,2,0,0,1,2,2V32a2,2,0,0,1-2,2H2a2,2,0,0,1-2-2V2A2,2,0,0,1,2,0Z" transform="translate(683 452)" fill="rgba(255,255,255,0.12)"/>
      <rect id="Rectángulo_W16_" data-name="Rectángulo W16%" width="160" height="34" rx="2" transform="translate(683 452)" fill="rgba(255,255,255,0.16)"/>
      <path id="Rectángulo_W16_-_Contorno" data-name="Rectángulo W16% - Contorno" d="M2,1A1,1,0,0,0,1,2V32a1,1,0,0,0,1,1H158a1,1,0,0,0,1-1V2a1,1,0,0,0-1-1H2M2,0H158a2,2,0,0,1,2,2V32a2,2,0,0,1-2,2H2a2,2,0,0,1-2-2V2A2,2,0,0,1,2,0Z" transform="translate(683 452)" fill="rgba(255,255,255,0.12)"/>
      <rect id="Rectángulo_BC6_" data-name="Rectángulo BC6%" width="160" height="34" rx="2" transform="translate(683 452)" fill="rgba(20,100,165,0.06)"/>
      <path id="Rectángulo_BC6_-_Contorno" data-name="Rectángulo BC6% - Contorno" d="M2,1A1,1,0,0,0,1,2V32a1,1,0,0,0,1,1H158a1,1,0,0,0,1-1V2a1,1,0,0,0-1-1H2M2,0H158a2,2,0,0,1,2,2V32a2,2,0,0,1-2,2H2a2,2,0,0,1-2-2V2A2,2,0,0,1,2,0Z" transform="translate(683 452)" fill="rgba(255,255,255,0.12)"/>
    </g>
    <path id="Trazado_7106" data-name="Trazado 7106" d="M18851.145,195.755h-16a.755.755,0,1,1,0-1.51h16a.755.755,0,1,1,0,1.51Z" transform="translate(-18144.145 265)" fill="rgba(255,255,255,0.6)"/>
    <text id="_" data-name="******" transform="translate(691 470)" fill="rgba(255,255,255,0.74)" font-size="13" font-family="Poppins-Medium, Poppins" font-weight="500"><tspan x="0" y="14">******</tspan></text>
    <text id="_2" data-name="*" transform="translate(711 466)" fill="rgba(255,255,255,0.74)" font-size="12" font-family="Poppins-Medium, Poppins" font-weight="500"><tspan x="0" y="0">*</tspan></text>
    <g id="Grupo_3935" data-name="Grupo 3935" transform="translate(823 468)">
      <g id="Grupo_3934" data-name="Grupo 3934" clip-path="url(#clip-path)">
        <path id="Trazado_7173" data-name="Trazado 7173" d="M7.379,5.834a3.5,3.5,0,1,0,0,2.333H9.916V10.5H12.25V8.167h1.166V5.834Zm-3.3,2.333A1.166,1.166,0,1,1,5.25,7,1.167,1.167,0,0,1,4.083,8.167" fill="rgba(255,255,255,0.6)"/>
      </g>
    </g>
  </g>
</svg>
