<svg xmlns="http://www.w3.org/2000/svg" width="208" height="83" viewBox="0 0 208 83">
  <g id="ilustracion_Phone" data-name="ilustracion Phone" transform="translate(-32 -24)">
    <g id="Ilustración_Tel." data-name="Ilustración Tel." transform="translate(-547 -428)">
      <g id="BG">
        <rect id="Rectángulo_121212" data-name="Rectángulo #121212" width="104" height="34" rx="2" transform="translate(683 452)" fill="#121212"/>
        <path id="Rectángulo_121212_-_Contorno" data-name="Rectángulo #121212 - Contorno" d="M2,1A1,1,0,0,0,1,2V32a1,1,0,0,0,1,1H102a1,1,0,0,0,1-1V2a1,1,0,0,0-1-1H2M2,0H102a2,2,0,0,1,2,2V32a2,2,0,0,1-2,2H2a2,2,0,0,1-2-2V2A2,2,0,0,1,2,0Z" transform="translate(683 452)" fill="rgba(255,255,255,0.12)"/>
        <rect id="Rectángulo_W16_" data-name="Rectángulo W16%" width="104" height="34" rx="2" transform="translate(683 452)" fill="rgba(255,255,255,0.16)"/>
        <path id="Rectángulo_W16_-_Contorno" data-name="Rectángulo W16% - Contorno" d="M2,1A1,1,0,0,0,1,2V32a1,1,0,0,0,1,1H102a1,1,0,0,0,1-1V2a1,1,0,0,0-1-1H2M2,0H102a2,2,0,0,1,2,2V32a2,2,0,0,1-2,2H2a2,2,0,0,1-2-2V2A2,2,0,0,1,2,0Z" transform="translate(683 452)" fill="rgba(255,255,255,0.12)"/>
        <rect id="Rectángulo_BC6_" data-name="Rectángulo BC6%" width="104" height="34" rx="2" transform="translate(683 452)" fill="rgba(20,100,165,0.06)"/>
        <path id="Rectángulo_BC6_-_Contorno" data-name="Rectángulo BC6% - Contorno" d="M2,1A1,1,0,0,0,1,2V32a1,1,0,0,0,1,1H102a1,1,0,0,0,1-1V2a1,1,0,0,0-1-1H2M2,0H102a2,2,0,0,1,2,2V32a2,2,0,0,1-2,2H2a2,2,0,0,1-2-2V2A2,2,0,0,1,2,0Z" transform="translate(683 452)" fill="rgba(255,255,255,0.12)"/>
      </g>
      <path id="Trazado_7106" data-name="Trazado 7106" d="M18851.145,195.755h-16a.755.755,0,1,1,0-1.51h16a.755.755,0,1,1,0,1.51Z" transform="translate(-18146.145 265)" fill="rgba(255,255,255,0.6)"/>
      <text id="_" data-name="*" transform="translate(709 466)" fill="rgba(255,255,255,0.74)" font-size="12" font-family="Poppins-Medium, Poppins" font-weight="500"><tspan x="0" y="0">*</tspan></text>
      <g id="phone_black_24dp_1_" data-name="phone_black_24dp (1)" transform="translate(770.379 469)">
        <path id="Trazado_7176" data-name="Trazado 7176" d="M0,0H12.621V12.621H0Z" fill="none"/>
        <path id="Trazado_7177" data-name="Trazado 7177" d="M4.866,7.015a7.807,7.807,0,0,0,3.4,3.4L9.4,9.277a.512.512,0,0,1,.526-.124,5.879,5.879,0,0,0,1.84.294.517.517,0,0,1,.515.515v1.8a.517.517,0,0,1-.515.515A8.76,8.76,0,0,1,3,3.515.517.517,0,0,1,3.515,3h1.8a.517.517,0,0,1,.515.515,5.855,5.855,0,0,0,.294,1.84A.517.517,0,0,1,6,5.881Z" transform="translate(-1.328 -1.328)" fill="rgba(255,255,255,0.6)"/>
      </g>
      <text id="_986_11_20_34" data-name="986 11 20 34" transform="translate(689 478)" fill="rgba(255,255,255,0.74)" font-size="10" font-family="Poppins-Bold, Poppins" font-weight="700"><tspan x="0" y="0">986 11 20 34</tspan></text>
    </g>
    <g id="Ilustración_Combo" data-name="Ilustración Combo" transform="translate(-992 -159)">
      <g id="BG-2" data-name="BG">
        <rect id="Rectángulo_121212-2" data-name="Rectángulo #121212" width="96" height="83" rx="2" transform="translate(1024 183)" fill="#121212"/>
        <path id="Rectángulo_121212_-_Contorno-2" data-name="Rectángulo #121212 - Contorno" d="M2,1A1,1,0,0,0,1,2V81a1,1,0,0,0,1,1H94a1,1,0,0,0,1-1V2a1,1,0,0,0-1-1H2M2,0H94a2,2,0,0,1,2,2V81a2,2,0,0,1-2,2H2a2,2,0,0,1-2-2V2A2,2,0,0,1,2,0Z" transform="translate(1024 183)" fill="rgba(255,255,255,0.12)"/>
        <rect id="Rectángulo_W16_2" data-name="Rectángulo W16%" width="96" height="83" rx="2" transform="translate(1024 183)" fill="rgba(255,255,255,0.16)"/>
        <path id="Rectángulo_W16_-_Contorno-2" data-name="Rectángulo W16% - Contorno" d="M2,1A1,1,0,0,0,1,2V81a1,1,0,0,0,1,1H94a1,1,0,0,0,1-1V2a1,1,0,0,0-1-1H2M2,0H94a2,2,0,0,1,2,2V81a2,2,0,0,1-2,2H2a2,2,0,0,1-2-2V2A2,2,0,0,1,2,0Z" transform="translate(1024 183)" fill="rgba(255,255,255,0.12)"/>
        <rect id="Rectángulo_BC6_2" data-name="Rectángulo BC6%" width="96" height="83" rx="2" transform="translate(1024 183)" fill="rgba(20,100,165,0.06)"/>
        <path id="Rectángulo_BC6_-_Contorno-2" data-name="Rectángulo BC6% - Contorno" d="M2,1A1,1,0,0,0,1,2V81a1,1,0,0,0,1,1H94a1,1,0,0,0,1-1V2a1,1,0,0,0-1-1H2M2,0H94a2,2,0,0,1,2,2V81a2,2,0,0,1-2,2H2a2,2,0,0,1-2-2V2A2,2,0,0,1,2,0Z" transform="translate(1024 183)" fill="rgba(255,255,255,0.12)"/>
      </g>
      <path id="Trazado_7093" data-name="Trazado 7093" d="M18917.809,195.755h-82.666a.755.755,0,1,1,0-1.51h82.666a.755.755,0,1,1,0,1.51Z" transform="translate(-17804.254 14.694)" fill="rgba(255,255,255,0.12)"/>
      <path id="Trazado_7092" data-name="Trazado 7092" d="M18875.145,195.755h-40a.755.755,0,1,1,0-1.51h40a.755.755,0,1,1,0,1.51Z" transform="translate(-17804.256 7.806)" fill="rgba(255,255,255,0.74)"/>
      <path id="Trazado_7091" data-name="Trazado 7091" d="M18848.145,195.755h-13a.755.755,0,1,1,0-1.51h13a.755.755,0,1,1,0,1.51Z" transform="translate(-17805.145 0)" fill="rgba(255,255,255,0.6)"/>
      <g id="chevron_left_black_24dp_1_" data-name="chevron_left_black_24dp (1)" transform="translate(1115.278 191.611) rotate(90)">
        <path id="Trazado_7080" data-name="Trazado 7080" d="M0,0H15.5V15.5H0Z" fill="none"/>
        <path id="Trazado_7145" data-name="Trazado 7145" d="M0,3.684H7.484L5.463,1.663,3.8,0Z" transform="translate(9.712 3.71) rotate(90)" fill="rgba(255,255,255,0.6)"/>
      </g>
      <g id="Grupo_3900" data-name="Grupo 3900" transform="translate(1030.889 222.181)">
        <path id="Trazado_7084" data-name="Trazado 7084" d="M18890.256,195.755h-55.111a.755.755,0,1,1,0-1.51h55.111a.755.755,0,1,1,0,1.51Z" transform="translate(-18835.145 -195)" fill="rgba(255,255,255,0.74)"/>
      </g>
      <g id="Grupo_3901" data-name="Grupo 3901" transform="translate(1030.889 229.5)">
        <path id="Trazado_7084-2" data-name="Trazado 7084" d="M18890.256,195.755h-55.111a.755.755,0,1,1,0-1.51h55.111a.755.755,0,1,1,0,1.51Z" transform="translate(-18835.145 -188.542)" fill="rgba(255,255,255,0.74)"/>
        <rect id="Rectángulo_6424" data-name="Rectángulo 6424" width="85" height="12" transform="translate(-0.889 0.5)" fill="rgba(255,255,255,0.12)"/>
      </g>
      <g id="Grupo_3902" data-name="Grupo 3902" transform="translate(1030.889 249.736)">
        <path id="Trazado_7084-3" data-name="Trazado 7084" d="M18890.256,195.755h-55.111a.755.755,0,1,1,0-1.51h55.111a.755.755,0,1,1,0,1.51Z" transform="translate(-18835.145 -195)" fill="rgba(255,255,255,0.74)"/>
      </g>
      <text id="_34" data-name="+34" transform="translate(1093 239)" fill="rgba(255,255,255,0.74)" font-size="10" font-family="Poppins-Bold, Poppins" font-weight="700"><tspan x="0" y="0">+34</tspan></text>
    </g>
  </g>
</svg>
