<svg width="90" height="74" viewBox="0 0 90 74" fill="none" xmlns="http://www.w3.org/2000/svg">
<rect width="90" height="74" rx="4" fill="white"/>
<rect x="0.5" y="0.5" width="89" height="73" rx="3.5" stroke="black" stroke-opacity="0.12"/>
<rect x="3" y="9" width="84" height="62" rx="2" fill="white"/>
<rect x="3.5" y="9.5" width="83" height="61" rx="1.5" stroke="black" stroke-opacity="0.12"/>
<circle cx="9.5" cy="4.5" r="1.5" fill="#D9D9D9"/>
<circle cx="14.5" cy="4.5" r="1.5" fill="#D9D9D9"/>
<circle cx="19.5" cy="4.5" r="1.5" fill="#D9D9D9"/>
<path d="M13.6667 33.3333C13.3 33.3333 12.9861 33.2027 12.725 32.9416C12.4639 32.6805 12.3333 32.3666 12.3333 32V24C12.3333 23.6333 12.4639 23.3194 12.725 23.0583C12.9861 22.7972 13.3 22.6666 13.6667 22.6666H17.6667L19 24H24.3333C24.7 24 25.0139 24.1305 25.275 24.3916C25.5361 24.6527 25.6667 24.9666 25.6667 25.3333H18.45L17.1167 24H13.6667V32L15.2667 26.6666H26.6667L24.95 32.3833C24.8611 32.6722 24.6972 32.9027 24.4583 33.075C24.2195 33.2472 23.9556 33.3333 23.6667 33.3333H13.6667ZM15.0667 32H23.6667L24.8667 28H16.2667L15.0667 32Z" fill="black" fill-opacity="0.74"/>
<path d="M65.6667 33.3333C65.3 33.3333 64.9861 33.2027 64.725 32.9416C64.4639 32.6805 64.3333 32.3666 64.3333 32V24C64.3333 23.6333 64.4639 23.3194 64.725 23.0583C64.9861 22.7972 65.3 22.6666 65.6667 22.6666H69.6667L71 24H76.3333C76.7 24 77.0139 24.1305 77.275 24.3916C77.5361 24.6527 77.6667 24.9666 77.6667 25.3333H70.45L69.1167 24H65.6667V32L67.2667 26.6666H78.6667L76.95 32.3833C76.8611 32.6722 76.6972 32.9027 76.4583 33.075C76.2195 33.2472 75.9556 33.3333 75.6667 33.3333H65.6667ZM67.0667 32H75.6667L76.8667 28H68.2667L67.0667 32Z" fill="black" fill-opacity="0.74"/>
<path d="M39.6667 55.3333C39.3 55.3333 38.9861 55.2027 38.725 54.9416C38.4639 54.6805 38.3333 54.3666 38.3333 54V46C38.3333 45.6333 38.4639 45.3194 38.725 45.0583C38.9861 44.7972 39.3 44.6666 39.6667 44.6666H43.6667L45 46H50.3333C50.7 46 51.0139 46.1305 51.275 46.3916C51.5361 46.6527 51.6667 46.9666 51.6667 47.3333H44.45L43.1167 46H39.6667V54L41.2667 48.6666H52.6667L50.95 54.3833C50.8611 54.6722 50.6972 54.9027 50.4583 55.075C50.2195 55.2472 49.9556 55.3333 49.6667 55.3333H39.6667ZM41.0667 54H49.6667L50.8667 50H42.2667L41.0667 54Z" fill="black" fill-opacity="0.74"/>
<path d="M65.6667 55.3333C65.3 55.3333 64.9861 55.2027 64.725 54.9416C64.4639 54.6805 64.3333 54.3666 64.3333 54V46C64.3333 45.6333 64.4639 45.3194 64.725 45.0583C64.9861 44.7972 65.3 44.6666 65.6667 44.6666H69.6667L71 46H76.3333C76.7 46 77.0139 46.1305 77.275 46.3916C77.5361 46.6527 77.6667 46.9666 77.6667 47.3333H70.45L69.1167 46H65.6667V54L67.2667 48.6666H78.6667L76.95 54.3833C76.8611 54.6722 76.6972 54.9027 76.4583 55.075C76.2195 55.2472 75.9556 55.3333 75.6667 55.3333H65.6667ZM67.0667 54H75.6667L76.8667 50H68.2667L67.0667 54Z" fill="black" fill-opacity="0.74"/>
<path d="M39.6667 33.3333C39.3 33.3333 38.9861 33.2027 38.725 32.9416C38.4639 32.6805 38.3333 32.3666 38.3333 32V24C38.3333 23.6333 38.4639 23.3194 38.725 23.0583C38.9861 22.7972 39.3 22.6666 39.6667 22.6666H43.6667L45 24H50.3333C50.7 24 51.0139 24.1305 51.275 24.3916C51.5361 24.6527 51.6667 24.9666 51.6667 25.3333V32C51.6667 32.3666 51.5361 32.6805 51.275 32.9416C51.0139 33.2027 50.7 33.3333 50.3333 33.3333H39.6667ZM39.6667 32H50.3333V25.3333H44.45L43.1167 24H39.6667V32Z" fill="black" fill-opacity="0.74"/>
<path d="M13.6667 55.3333C13.3 55.3333 12.9861 55.2027 12.725 54.9416C12.4639 54.6805 12.3333 54.3666 12.3333 54V46C12.3333 45.6333 12.4639 45.3194 12.725 45.0583C12.9861 44.7972 13.3 44.6666 13.6667 44.6666H17.6667L19 46H24.3333C24.7 46 25.0139 46.1305 25.275 46.3916C25.5361 46.6527 25.6667 46.9666 25.6667 47.3333V54C25.6667 54.3666 25.5361 54.6805 25.275 54.9416C25.0139 55.2027 24.7 55.3333 24.3333 55.3333H13.6667ZM13.6667 54H24.3333V47.3333H18.45L17.1167 46H13.6667V54Z" fill="black" fill-opacity="0.74"/>
</svg>
