<svg width="62" height="76" viewBox="0 0 62 76" fill="none" xmlns="http://www.w3.org/2000/svg">
<path d="M22.3718 0.00149344C24.6016 0.00149344 26.8328 0.00149344 29.0625 0.00149344C29.9914 0.080646 30.9188 0.174733 31.8477 0.237458C35.2856 0.471928 38.6847 0.951324 42.0241 1.80557C44.4569 2.42834 46.8404 3.20045 48.9193 4.66253C50.3291 5.65268 51.4148 6.84296 51.4118 8.74411C51.3954 23.2708 51.4044 37.7991 51.3999 52.3258C51.3999 52.6409 51.3805 52.962 51.3163 53.2696C51.0236 54.672 50.0558 55.586 48.9551 56.3671C47.1331 57.6619 45.0572 58.4086 42.9276 59.006C38.1501 60.3441 33.2516 60.8728 28.3142 61.0191C22.2927 61.1968 16.3025 60.8399 10.4094 59.4883C7.63155 58.8507 4.91199 58.0382 2.52546 56.4014C0.912544 55.2948 -0.00742211 53.8924 4.5107e-05 51.7882C0.0553025 37.5392 0.0284253 23.2903 0.0329056 9.04131C0.0329056 8.62613 0.0329038 8.20199 0.115043 7.79876C0.401784 6.37252 1.39343 5.45256 2.51351 4.65954C4.10254 3.53199 5.89915 2.83605 7.74953 2.27153C11.5309 1.11859 15.4184 0.557055 19.3491 0.244925C20.3572 0.164279 21.3653 0.0821394 22.3733 0L22.3718 0.00149344ZM2.53293 12.5225C2.5165 12.6614 2.49858 12.7391 2.49858 12.8167C2.49709 16.2128 2.47468 19.6104 2.52247 23.0065C2.52845 23.4695 2.7898 24.0116 3.10193 24.3715C3.95469 25.3542 5.13749 25.8769 6.3188 26.3518C10.2271 27.9229 14.3371 28.6398 18.5038 28.9504C21.6923 29.1879 24.9032 29.2446 28.1022 29.2207C32.926 29.1849 37.6976 28.6144 42.3556 27.3016C44.2881 26.7565 46.1818 26.0935 47.8201 24.8733C48.5848 24.3043 48.9716 23.6024 48.9566 22.5943C48.9073 19.4566 48.9387 16.3174 48.9372 13.1796C48.9372 12.9735 48.9193 12.766 48.9073 12.4792C48.5385 12.6883 48.2592 12.875 47.9575 13.0109C46.8031 13.5351 45.674 14.1354 44.4778 14.5402C39.4643 16.2367 34.2552 16.8192 29.0012 17.0312C24.2028 17.2254 19.4148 17.0432 14.6582 16.3263C11.3144 15.8215 8.01238 15.142 4.90751 13.7427C4.11748 13.3857 3.36179 12.9526 2.53143 12.524L2.53293 12.5225ZM48.9387 41.7627C48.6221 41.9449 48.4294 42.0763 48.2189 42.1704C46.9569 42.7439 45.7278 43.4189 44.4195 43.858C39.1133 45.6426 33.601 46.1982 28.0439 46.367C23.3635 46.5088 18.6965 46.2803 14.0668 45.5381C11.0829 45.0587 8.13185 44.4404 5.34359 43.2292C4.40421 42.8215 3.50217 42.3317 2.54338 41.8597C2.52546 41.9867 2.49709 42.0972 2.49709 42.2062C2.49559 45.5844 2.47468 48.9611 2.52098 52.3377C2.52695 52.7843 2.77786 53.307 3.07804 53.6535C3.96066 54.6675 5.17931 55.2037 6.40095 55.686C10.9261 57.4737 15.6842 58.1607 20.4961 58.4041C23.7697 58.5699 27.0612 58.5266 30.3394 58.4295C34.3612 58.3115 38.3323 57.7321 42.2152 56.6418C44.1896 56.0878 46.1221 55.4217 47.8007 54.1911C48.5668 53.6296 48.979 52.9321 48.9551 51.9211C48.8999 49.6376 48.9387 47.3526 48.9387 45.0677V41.7612V41.7627ZM48.9387 27.1374C48.6714 27.2748 48.4937 27.3524 48.3309 27.4525C46.5208 28.5666 44.5375 29.261 42.499 29.8062C38.4308 30.8964 34.2776 31.4116 30.0795 31.6222C24.2177 31.9164 18.3858 31.6954 12.6047 30.632C9.15486 29.9973 5.77669 29.1296 2.75097 27.2539C2.69572 27.2195 2.61358 27.2285 2.52845 27.2165C2.51501 27.3285 2.49858 27.4062 2.49858 27.4838C2.49709 30.8814 2.47618 34.279 2.52098 37.6766C2.52695 38.1231 2.77487 38.6458 3.07355 38.9938C3.93677 39.9989 5.136 40.5306 6.33822 41.0115C10.3063 42.6005 14.4775 43.3114 18.7069 43.619C21.8387 43.846 24.9898 43.9102 28.1306 43.8774C32.9141 43.8266 37.6498 43.2725 42.272 41.9762C44.2075 41.4326 46.1012 40.774 47.7529 39.5778C48.5579 38.9953 48.979 38.2725 48.9596 37.2121C48.9044 34.0938 48.9402 30.974 48.9402 27.8542C48.9402 27.6451 48.9402 27.4361 48.9402 27.1374H48.9387ZM25.5902 14.6477C29.5015 14.6223 33.2531 14.4177 36.9717 13.8233C39.7585 13.3783 42.5124 12.7809 45.1334 11.6937C46.3297 11.1978 47.502 10.6468 48.4055 9.67901C49.109 8.92631 49.0985 8.16316 48.3936 7.41346C48.1771 7.18346 47.953 6.92809 47.6797 6.7892C46.3924 6.13656 45.1349 5.37938 43.7789 4.91642C38.7489 3.19597 33.5129 2.66132 28.2336 2.506C23.7742 2.37458 19.3237 2.54035 14.9031 3.21538C11.973 3.66342 9.08168 4.26976 6.32776 5.39432C5.1121 5.89014 3.91884 6.44869 3.00784 7.44482C2.35371 8.16018 2.31787 8.92183 2.98246 9.61778C3.38867 10.0434 3.86956 10.4183 4.37136 10.7274C6.07836 11.7803 7.97205 12.3836 9.8971 12.881C15.0913 14.2221 20.396 14.6059 25.5887 14.6507L25.5902 14.6477Z" fill="black" fill-opacity="0.6"/>
<path d="M2.53453 12.523C2.53412 12.5228 2.5337 12.5226 2.53329 12.5223L2.53478 12.5208C2.5347 12.5216 2.53461 12.5223 2.53453 12.523ZM2.53453 12.523C2.52857 12.5731 2.52242 12.6152 2.51702 12.6523C2.5076 12.7169 2.50044 12.766 2.50044 12.8151C2.50009 13.5945 2.49865 14.374 2.4972 15.1536C2.49236 17.7707 2.48751 20.3882 2.52433 23.0048C2.5303 23.4678 2.79165 24.0099 3.10378 24.3698C3.95654 25.3525 5.13935 25.8752 6.32066 26.3501C10.229 27.9212 14.339 28.6381 18.5057 28.9487C21.6942 29.1862 24.9051 29.2429 28.104 29.219C32.9279 29.1832 37.7009 28.6142 42.3575 27.3C44.29 26.7549 46.1837 26.0933 47.822 24.8716C48.5866 24.3026 48.9749 23.6007 48.9585 22.5926C48.9235 20.3633 48.9292 18.134 48.9348 15.9041C48.9372 14.9955 48.9395 14.0868 48.9391 13.178C48.9391 13.0356 48.9312 12.8925 48.9219 12.7231C48.9178 12.6473 48.9134 12.5662 48.9092 12.4775C48.7899 12.5452 48.68 12.6103 48.5756 12.6721C48.3573 12.8014 48.1635 12.9162 47.9594 13.0092C47.6368 13.1557 47.3163 13.308 46.9957 13.4605C46.1688 13.8536 45.3417 14.2468 44.4796 14.5385C39.4661 16.235 34.257 16.8175 29.0031 17.0296C24.2046 17.2237 19.4167 17.0415 14.6601 16.3247C11.3162 15.8199 8.01422 15.1403 4.90935 13.741C4.3715 13.498 3.84957 13.2197 3.30915 12.9315C3.05617 12.7966 2.79914 12.6596 2.53453 12.523Z" fill="white"/>
<path d="M2.53453 12.523C2.53412 12.5228 2.5337 12.5226 2.53329 12.5223L2.53478 12.5208C2.5347 12.5216 2.53461 12.5223 2.53453 12.523ZM2.53453 12.523C2.52857 12.5731 2.52242 12.6152 2.51702 12.6523C2.5076 12.7169 2.50044 12.766 2.50044 12.8151C2.50009 13.5945 2.49865 14.374 2.4972 15.1536C2.49236 17.7707 2.48751 20.3882 2.52433 23.0048C2.5303 23.4678 2.79165 24.0099 3.10378 24.3698C3.95654 25.3525 5.13935 25.8752 6.32066 26.3501C10.229 27.9212 14.339 28.6381 18.5057 28.9487C21.6942 29.1862 24.9051 29.2429 28.104 29.219C32.9279 29.1832 37.7009 28.6142 42.3575 27.3C44.29 26.7549 46.1837 26.0933 47.822 24.8716C48.5866 24.3026 48.9749 23.6007 48.9585 22.5926C48.9235 20.3633 48.9292 18.134 48.9348 15.9041C48.9372 14.9955 48.9395 14.0868 48.9391 13.178C48.9391 13.0356 48.9312 12.8925 48.9219 12.7231C48.9178 12.6473 48.9134 12.5662 48.9092 12.4775C48.7899 12.5452 48.68 12.6103 48.5756 12.6721C48.3573 12.8014 48.1635 12.9162 47.9594 13.0092C47.6368 13.1557 47.3163 13.308 46.9957 13.4605C46.1688 13.8536 45.3417 14.2468 44.4796 14.5385C39.4661 16.235 34.257 16.8175 29.0031 17.0296C24.2046 17.2237 19.4167 17.0415 14.6601 16.3247C11.3162 15.8199 8.01422 15.1403 4.90935 13.741C4.3715 13.498 3.84957 13.2197 3.30915 12.9315C3.05617 12.7966 2.79914 12.6596 2.53453 12.523Z" stroke="white"/>
<path d="M48.939 41.7642V45.0692C48.939 45.7334 48.9359 46.3976 48.9327 47.0618C48.925 48.6825 48.9173 50.3029 48.9554 51.9226C48.9793 52.9337 48.5671 53.6311 47.801 54.1926C46.1224 55.4247 44.1899 56.0893 42.2155 56.6434C38.3326 57.7336 34.3615 58.313 30.3397 58.431C27.0601 58.5281 23.77 58.5714 20.4964 58.4056C15.6845 58.1622 10.9264 57.4737 6.40125 55.6876C5.17812 55.2052 3.96096 54.669 3.07834 53.655C2.77666 53.31 2.52725 52.7858 2.52128 52.3393C2.48536 49.7195 2.4899 47.0988 2.49443 44.4785C2.49574 43.7216 2.49705 42.9646 2.49739 42.2077C2.49739 42.1328 2.51043 42.0586 2.52441 41.979C2.53106 41.9412 2.53791 41.9021 2.54368 41.8613C2.84646 42.0103 3.14373 42.1611 3.43832 42.3106C4.07656 42.6344 4.70219 42.9518 5.34389 43.2307C8.13215 44.4419 11.0832 45.0602 14.0671 45.5396C18.6983 46.2834 23.3653 46.5118 28.0442 46.3685C33.6013 46.1997 39.1136 45.6442 44.4199 43.8595C45.3363 43.5509 46.214 43.1279 47.0913 42.7051C47.4663 42.5243 47.8413 42.3436 48.2192 42.1719C48.3531 42.1107 48.4803 42.0347 48.6381 41.9405C48.7266 41.8877 48.8247 41.8291 48.939 41.7642Z" fill="white"/>
<path d="M48.939 41.7642V45.0692C48.939 45.7334 48.9359 46.3976 48.9327 47.0618C48.925 48.6825 48.9173 50.3029 48.9554 51.9226C48.9793 52.9337 48.5671 53.6311 47.801 54.1926C46.1224 55.4247 44.1899 56.0893 42.2155 56.6434C38.3326 57.7336 34.3615 58.313 30.3397 58.431C27.0601 58.5281 23.77 58.5714 20.4964 58.4056C15.6845 58.1622 10.9264 57.4737 6.40125 55.6876C5.17812 55.2052 3.96096 54.669 3.07834 53.655C2.77666 53.31 2.52725 52.7858 2.52128 52.3393C2.48536 49.7195 2.4899 47.0988 2.49443 44.4785C2.49574 43.7216 2.49705 42.9646 2.49739 42.2077C2.49739 42.1328 2.51043 42.0586 2.52441 41.979C2.53106 41.9412 2.53791 41.9021 2.54368 41.8613C2.84646 42.0103 3.14373 42.1611 3.43832 42.3106C4.07656 42.6344 4.70219 42.9518 5.34389 43.2307C8.13215 44.4419 11.0832 45.0602 14.0671 45.5396C18.6983 46.2834 23.3653 46.5118 28.0442 46.3685C33.6013 46.1997 39.1136 45.6442 44.4199 43.8595C45.3363 43.5509 46.214 43.1279 47.0913 42.7051C47.4663 42.5243 47.8413 42.3436 48.2192 42.1719C48.3531 42.1107 48.4803 42.0347 48.6381 41.9405C48.7266 41.8877 48.8247 41.8291 48.939 41.7642Z" stroke="white"/>
<path d="M48.9383 27.1375V27.8543C48.9383 28.7352 48.9355 29.6161 48.9326 30.497C48.9253 32.7358 48.9181 34.9744 48.9577 37.2122C48.9771 38.2726 48.556 38.9954 47.751 39.5778C46.0978 40.7741 44.2056 41.4342 42.2701 41.9763C37.6479 43.2726 32.9122 43.8267 28.1287 43.8775C24.988 43.9103 21.8368 43.8476 18.705 43.6191C14.4771 43.3114 10.3044 42.6006 6.33635 41.0115C5.13563 40.5307 3.93489 39.999 3.07168 38.9939C2.77299 38.6459 2.52508 38.1232 2.5191 37.6767C2.48452 35.0541 2.48909 32.4315 2.49366 29.809C2.49502 29.0339 2.49637 28.2589 2.49671 27.4839C2.49671 27.4356 2.50364 27.3874 2.51175 27.3308C2.51668 27.2964 2.52206 27.259 2.52658 27.2166C2.55492 27.2212 2.58326 27.223 2.6105 27.2247C2.66363 27.2281 2.71257 27.2312 2.7491 27.2539C5.77631 29.1312 9.15448 29.9974 12.6028 30.6321C18.384 31.6954 24.2159 31.918 30.0776 31.6223C34.2772 31.4117 38.4305 30.8965 42.4971 29.8062C44.5356 29.2596 46.5175 28.5667 48.329 27.4526C48.4362 27.3867 48.5498 27.3305 48.6913 27.2606C48.7646 27.2244 48.8455 27.1844 48.9368 27.1375H48.9383Z" fill="white"/>
<path d="M48.9383 27.1375V27.8543C48.9383 28.7352 48.9355 29.6161 48.9326 30.497C48.9253 32.7358 48.9181 34.9744 48.9577 37.2122C48.9771 38.2726 48.556 38.9954 47.751 39.5778C46.0978 40.7741 44.2056 41.4342 42.2701 41.9763C37.6479 43.2726 32.9122 43.8267 28.1287 43.8775C24.988 43.9103 21.8368 43.8476 18.705 43.6191C14.4771 43.3114 10.3044 42.6006 6.33635 41.0115C5.13563 40.5307 3.93489 39.999 3.07168 38.9939C2.77299 38.6459 2.52508 38.1232 2.5191 37.6767C2.48452 35.0541 2.48909 32.4315 2.49366 29.809C2.49502 29.0339 2.49637 28.2589 2.49671 27.4839C2.49671 27.4356 2.50364 27.3874 2.51175 27.3308C2.51668 27.2964 2.52206 27.259 2.52658 27.2166C2.55492 27.2212 2.58326 27.223 2.6105 27.2247C2.66363 27.2281 2.71257 27.2312 2.7491 27.2539C5.77631 29.1312 9.15448 29.9974 12.6028 30.6321C18.384 31.6954 24.2159 31.918 30.0776 31.6223C34.2772 31.4117 38.4305 30.8965 42.4971 29.8062C44.5356 29.2596 46.5175 28.5667 48.329 27.4526C48.4362 27.3867 48.5498 27.3305 48.6913 27.2606C48.7646 27.2244 48.8455 27.1844 48.9368 27.1375H48.9383Z" stroke="white"/>
<path d="M25.5904 14.6479C20.3977 14.6046 15.093 14.2193 9.89881 12.8782C7.97376 12.3808 6.08007 11.7775 4.37307 10.7246C3.87127 10.4155 3.38889 10.0406 2.98417 9.61498C2.31958 8.91904 2.35542 8.15738 3.00955 7.44202C3.92055 6.44589 5.11381 5.88884 6.32947 5.39152C9.08338 4.26696 11.9747 3.65913 14.9048 3.21259C19.3254 2.53755 23.7744 2.37178 28.2353 2.5032C33.5146 2.65852 38.7506 3.19317 43.7806 4.91362C44.7879 5.25866 45.7409 5.76441 46.6922 6.26925C47.0214 6.44397 47.3504 6.61859 47.6814 6.7864C47.9293 6.91234 48.1366 7.13405 48.3345 7.34577C48.3549 7.36754 48.3751 7.38921 48.3953 7.41066C49.1002 8.15887 49.1092 8.92352 48.4073 9.67621C47.5037 10.644 46.3314 11.195 45.1351 11.6909C42.5141 12.7781 39.7617 13.3755 36.9734 13.8205C33.2533 14.4149 29.5018 14.6195 25.5919 14.6449L25.5904 14.6479Z" fill="white"/>
<path d="M25.5904 14.6479C20.3977 14.6046 15.093 14.2193 9.89881 12.8782C7.97376 12.3808 6.08007 11.7775 4.37307 10.7246C3.87127 10.4155 3.38889 10.0406 2.98417 9.61498C2.31958 8.91904 2.35542 8.15738 3.00955 7.44202C3.92055 6.44589 5.11381 5.88884 6.32947 5.39152C9.08338 4.26696 11.9747 3.65913 14.9048 3.21259C19.3254 2.53755 23.7744 2.37178 28.2353 2.5032C33.5146 2.65852 38.7506 3.19317 43.7806 4.91362C44.7879 5.25866 45.7409 5.76441 46.6922 6.26925C47.0214 6.44397 47.3504 6.61859 47.6814 6.7864C47.9293 6.91234 48.1366 7.13405 48.3345 7.34577C48.3549 7.36754 48.3751 7.38921 48.3953 7.41066C49.1002 8.15887 49.1092 8.92352 48.4073 9.67621C47.5037 10.644 46.3314 11.195 45.1351 11.6909C42.5141 12.7781 39.7617 13.3755 36.9734 13.8205C33.2533 14.4149 29.5018 14.6195 25.5919 14.6449L25.5904 14.6479Z" stroke="white"/>
<rect x="45.6587" y="55.2129" width="14.4676" height="6.21551" rx="1.86465" transform="rotate(71.7957 45.6587 55.2129)" fill="white"/>
<rect x="45.1805" y="56.1597" width="12.9676" height="4.71551" rx="1.11465" transform="rotate(71.7957 45.1805 56.1597)" stroke="black" stroke-opacity="0.6" stroke-width="1.5"/>
<circle cx="38.4001" cy="46.4001" r="16.1603" transform="rotate(-18.2043 38.4001 46.4001)" fill="white"/>
<circle cx="38.4001" cy="46.4001" r="15.4103" transform="rotate(-18.2043 38.4001 46.4001)" stroke="black" stroke-opacity="0.6" stroke-width="1.5"/>
<circle cx="38.4" cy="46.4001" r="11.1879" transform="rotate(-18.2043 38.4 46.4001)" fill="white"/>
<circle cx="38.4" cy="46.4001" r="10.4379" transform="rotate(-18.2043 38.4 46.4001)" stroke="black" stroke-opacity="0.6" stroke-width="1.5"/>
<path d="M40.5842 45.3622L41.8367 44.9503L42.7304 47.6676L41.4779 48.0795L40.5842 45.3622ZM36.8499 42.5911L38.1237 42.1722L40.2041 48.4984L38.9304 48.9173L36.8499 42.5911ZM34.945 45.3113L36.3037 44.8644L37.7628 49.3013L36.4042 49.7481L34.945 45.3113Z" fill="black" fill-opacity="0.6"/>
<path d="M32.3252 41.8547L35.5162 51.5577L45.5537 48.2567" stroke="black" stroke-opacity="0.6" stroke-width="1.2"/>
</svg>
