<svg width="120" height="72" viewBox="0 0 120 72" fill="none" xmlns="http://www.w3.org/2000/svg">
<rect width="120" height="72" fill="white"/>
<rect x="0.5" y="0.5" width="119" height="71" stroke="black" stroke-opacity="0.12"/>
<path d="M76.138 20.5225H44.0526C41.9651 20.5225 40.2735 22.214 40.2735 24.3015V31.3371H43.8553V24.0696H76.2646V49.2114H43.8553V42.0132H40.2735V48.9795C40.2735 51.0669 41.9651 52.7585 44.0526 52.7585H76.138C78.2242 52.7585 79.9158 51.0669 79.9158 48.9795V24.3015C79.9158 22.214 78.2242 20.5225 76.138 20.5225Z" fill="black" fill-opacity="0.74"/>
<path d="M40.1053 31.3371V31.5053H40.2735H43.8553H44.0235V31.3371V24.2378H76.0965V49.0432H44.0235V42.0132V41.845H43.8553H40.2735H40.1053V42.0132V48.9795C40.1053 51.1598 41.8722 52.9267 44.0526 52.9267H76.138C78.3171 52.9267 80.0839 51.1598 80.0839 48.9795V24.3015C80.0839 22.1212 78.3171 20.3543 76.138 20.3543H44.0526C41.8722 20.3543 40.1053 22.1212 40.1053 24.3015V31.3371Z" stroke="black" stroke-opacity="0.74" stroke-width="0.336342"/>
<path d="M65.1207 36.362L61.6776 39.8678L58.2358 43.3736V38.1055H40.0829V34.5064H58.2358V29.3503L61.6776 32.8561L65.1207 36.362Z" fill="black" fill-opacity="0.74"/>
<path d="M65.2407 36.4798L65.3564 36.362L65.2407 36.2441L61.7976 32.7383L61.7976 32.7383L58.3558 29.2325L58.0676 28.939V29.3503V34.3382H40.0829H39.9147V34.5064V38.1055V38.2737H40.0829H58.0676V43.3736V43.7849L58.3558 43.4914L61.7976 39.9856L61.7976 39.9856L65.2407 36.4798Z" stroke="black" stroke-opacity="0.74" stroke-width="0.336342"/>
</svg>
