<svg width="90" height="90" viewBox="0 0 90 90" fill="none" xmlns="http://www.w3.org/2000/svg">
<rect width="90" height="90" rx="45" fill="white"/>
<rect x="0.25" y="0.25" width="89.5" height="89.5" rx="44.75" stroke="black" stroke-opacity="0.12" stroke-width="0.5"/>
<circle cx="20.3541" cy="33.127" r="3.43652" fill="black" fill-opacity="0.74"/>
<circle cx="20.3541" cy="45" r="3.43652" fill="black" fill-opacity="0.74"/>
<circle cx="20.3541" cy="56.873" r="3.43652" fill="black" fill-opacity="0.74"/>
<path d="M29.7906 32.9932C29.7906 31.6545 30.8759 30.5693 32.2145 30.5693H70.6586C71.9973 30.5693 73.0825 31.6545 73.0825 32.9932C73.0825 34.3319 71.9973 35.4171 70.6586 35.4171H32.2145C30.8759 35.4171 29.7906 34.3319 29.7906 32.9932ZM32.1582 47.3675C30.8506 47.3675 29.7906 46.3075 29.7906 45C29.7906 43.6924 30.8506 42.6324 32.1582 42.6324H70.715C72.0225 42.6324 73.0825 43.6924 73.0825 45C73.0825 46.3075 72.0225 47.3675 70.715 47.3675H32.1582ZM32.2145 59.4306C30.8759 59.4306 29.7906 58.3454 29.7906 57.0067C29.7906 55.668 30.8759 54.5828 32.2145 54.5828H70.6586C71.9973 54.5828 73.0825 55.668 73.0825 57.0067C73.0825 58.3454 71.9973 59.4306 70.6586 59.4306H32.2145Z" fill="black" fill-opacity="0.74"/>
</svg>
