<svg width="31" height="31" viewBox="0 0 31 31" fill="none" xmlns="http://www.w3.org/2000/svg">
<path id="Vector" d="M0.11499 2.38511C0.11499 1.17017 1.13033 0.185547 2.38309 0.185547H28.7317C29.9844 0.185547 30.9998 1.17017 30.9998 2.38511V28.6954C30.9998 29.9104 29.9844 30.895 28.7317 30.895H2.38309C1.13033 30.895 0.11499 29.9104 0.11499 28.6954V2.38511ZM9.65645 25.8932V12.026H5.02181V25.8932H9.65645ZM7.3401 10.1316C8.95575 10.1316 9.96144 9.06826 9.96144 7.73624C9.93249 6.37542 8.95768 5.3409 7.37098 5.3409C5.78428 5.3409 4.74771 6.37734 4.74771 7.73624C4.74771 9.06826 5.75339 10.1316 7.30921 10.1316H7.3401ZM16.814 25.8932V18.1487C16.814 17.7341 16.8449 17.3195 16.9684 17.0239C17.3024 16.1967 18.0648 15.3387 19.3465 15.3387C21.024 15.3387 21.6938 16.6094 21.6938 18.475V25.8932H26.3284V17.9395C26.3284 13.6785 24.043 11.6978 20.9931 11.6978C18.5339 11.6978 17.4317 13.0413 16.814 13.9875V14.0355H16.7831C16.7934 14.0195 16.8037 14.0035 16.814 13.9875V12.026H12.1813C12.2392 13.3273 12.1813 25.8932 12.1813 25.8932H16.814Z" fill="white" fill-opacity="0.87"/>
</svg>
