<svg width="120" height="90" viewBox="0 0 120 90" fill="none" xmlns="http://www.w3.org/2000/svg">
<rect width="120" height="90" fill="white"/>
<rect x="0.5" y="0.5" width="119" height="89" stroke="black" stroke-opacity="0.12"/>
<path d="M43.6215 24.9284V24.5393C43.6215 20.5765 46.8605 17.3284 50.8324 17.3284H68.3848C70.4386 17.3284 72.3024 18.1969 73.6143 19.5903" stroke="black" stroke-opacity="0.74" stroke-width="0.904762" stroke-miterlimit="10"/>
<path d="M43.6215 29.9951V63.8061C43.6215 67.778 46.8605 71.0261 50.8324 71.0261H58.0253" stroke="black" stroke-opacity="0.74" stroke-width="0.904762" stroke-miterlimit="10"/>
<path d="M61.9882 71.0258H68.3848C72.0129 71.0258 75.0348 68.3115 75.5234 64.8101" stroke="black" stroke-opacity="0.74" stroke-width="0.904762" stroke-miterlimit="10"/>
<path d="M75.5957 54.9306V29.0635" stroke="black" stroke-opacity="0.74" stroke-width="0.904762" stroke-miterlimit="10"/>
<path d="M66.3491 60.9923H46.942V27.3623H68.1224" stroke="black" stroke-opacity="0.74" stroke-width="0.904762" stroke-miterlimit="10"/>
<path d="M72.2753 54.9305V30.8005" stroke="black" stroke-opacity="0.74" stroke-width="0.904762" stroke-miterlimit="10"/>
<g opacity="0.74">
<path d="M68.6562 35.1704H50.5609V36.0752H68.6562V35.1704Z" fill="black" fill-opacity="0.74"/>
<path d="M50.8821 35.754V35.4916H68.335V35.754H50.8821Z" stroke="black" stroke-opacity="0.74" stroke-width="0.642381" stroke-miterlimit="10"/>
</g>
<g opacity="0.74">
<path d="M68.6562 42.9788H50.5609V43.8835H68.6562V42.9788Z" fill="black" fill-opacity="0.74"/>
<path d="M50.8821 43.5623V43.3H68.335V43.5623H50.8821Z" stroke="black" stroke-opacity="0.74" stroke-width="0.642381" stroke-miterlimit="10"/>
</g>
<g opacity="0.74">
<path d="M68.6562 50.1531H50.5609V51.0578H68.6562V50.1531Z" fill="black" fill-opacity="0.74"/>
<path d="M50.8821 50.7366V50.4743H68.335V50.7366H50.8821Z" stroke="black" stroke-opacity="0.74" stroke-width="0.642381" stroke-miterlimit="10"/>
</g>
<path d="M43.8024 25.1363L43.4858 24.7925L43.1872 25.1453L42.7982 25.6068C42.5448 25.9144 42.2824 26.3034 42.011 26.7649V26.783C41.7667 27.2534 41.6129 27.6877 41.6129 28.0768C41.6129 28.5834 41.7939 29.0358 42.1467 29.4158V29.4249C42.5267 29.8049 42.9791 30.0039 43.4948 30.0039C44.0105 30.0039 44.472 29.7958 44.8429 29.4249C45.2229 29.0449 45.422 28.5925 45.422 28.0768C45.422 27.6425 45.2591 27.1901 44.9877 26.7106C44.7162 26.2311 44.3091 25.7063 43.7934 25.1363H43.8024Z" fill="black" fill-opacity="0.74" stroke="white" stroke-width="0.814286"/>
<path d="M35.0533 19.5907L31.4343 23.2097C31.1448 23.4993 31 23.8612 31 24.2773C31 24.6935 31.1448 25.0826 31.4343 25.3812L35.6233 29.534C35.9219 29.8326 36.2838 30.0045 36.691 30.0045C37.0981 30.0045 37.4871 29.8326 37.7948 29.534L41.9386 25.3902C42.2552 25.1007 42.4181 24.7388 42.4181 24.3135C42.4181 23.8883 42.2462 23.5173 41.9476 23.2097L35.2071 16.4331L34.9267 16.1526L34.6371 16.4331L33.5333 17.5007L33.2348 17.7902L33.5243 18.0797L35.0443 19.5997L35.0533 19.5907Z" fill="black" fill-opacity="0.74" stroke="white" stroke-width="0.814286"/>
<path d="M86.2358 17.8443L86.5253 18.1338L86.8148 17.8443L88.1177 16.5414C88.6515 16.0076 88.9139 15.329 88.9139 14.551C88.9139 13.7729 88.6515 13.0943 88.1177 12.5605L86.4167 10.8595C85.8467 10.2895 85.1591 10 84.3719 10C83.5848 10 82.9424 10.2986 82.3815 10.8595L81.1329 12.1081L80.8434 12.3976L81.1239 12.6871L86.2358 17.8533V17.8443Z" fill="black" fill-opacity="0.74" stroke="white" stroke-width="0.814286"/>
<path d="M79.9385 13.8086L79.649 13.519L79.3595 13.8086L68.2309 24.9914L68.1133 25.109V25.281V30.3929V30.8H68.5204H73.6866H73.8585L73.9761 30.6824L85.1047 19.5538L85.3942 19.2643L85.1047 18.9748L79.9385 13.8086Z" fill="black" fill-opacity="0.74" stroke="white" stroke-width="0.814286"/>
<path d="M66.7472 54.9304H66.34V62.5757C66.34 63.1728 66.5753 63.7066 67.0095 64.1409C67.4438 64.5752 67.9776 64.8104 68.5748 64.8104H79.8843V54.9214H66.7472V54.9304Z" fill="black" fill-opacity="0.74" stroke="white" stroke-width="0.814286"/>
<path d="M74.7543 59.3728L76.8443 62.1685H72.61L72.8271 61.888L74.7543 59.3728Z" fill="white"/>
<path d="M72.1938 61.9063L72.411 62.1687H69.4162L70.8548 60.332L72.1938 61.9063Z" fill="white"/>
<path d="M57.9618 71.8324L57.3986 71.4554C56.4267 70.8048 55.7904 69.7025 55.7904 68.4476C55.7904 66.4454 57.4073 64.8285 59.4095 64.8285C61.4116 64.8285 63.0285 66.4454 63.0285 68.4476C63.0285 69.7025 62.3922 70.8048 61.4203 71.4554L60.8571 71.8324V72.4285H61.0453C61.2349 72.4285 61.4119 72.4687 61.5739 72.5354L61.5859 72.5403L61.5974 72.5461L64.8733 74.1768C65.3839 74.3946 65.7428 74.9127 65.7428 75.5047C65.7428 75.5747 65.7322 75.6481 65.7258 75.6926C65.7254 75.6953 65.7251 75.698 65.7247 75.7005L57.9618 71.8324ZM57.9618 71.8324V75.775C57.8945 75.7608 57.8292 75.747 57.766 75.7336C56.8787 75.5462 56.3962 75.4443 56.1264 75.389C55.81 75.3242 55.7585 75.3165 55.6674 75.3165C55.3402 75.3165 55.0473 75.4537 54.8396 75.6614L54.838 75.663L54.2662 76.242L54.0135 76.4979L54.2678 76.7522L57.8435 80.3279C58.1038 80.5882 58.4697 80.7523 58.8666 80.7523H63.7813C64.5191 80.7523 65.0776 80.207 65.1814 79.5179L65.1818 79.5149L65.7247 75.7007L57.9618 71.8324Z" fill="black" fill-opacity="0.74" stroke="white" stroke-width="0.72381"/>
<path d="M36.6419 21L39.3019 23.6419H34L36.6419 21Z" fill="white"/>
</svg>
