<svg xmlns="http://www.w3.org/2000/svg" width="128" height="96" viewBox="0 0 128 96">
  <g id="Ilustracion_Form_layout_amanger_2" data-name="Ilustracion Form layout amanger 2" transform="translate(-393 -468)">
    <g id="Ilustracion_SnackBar" data-name="Ilustracion  SnackBar" transform="translate(-631 25)">
      <g id="BG">
        <path id="Trazado_7172" data-name="Trazado 7172" d="M2.286,0H125.714A2.157,2.157,0,0,1,128,2V94a2.157,2.157,0,0,1-2.286,2H2.286A2.157,2.157,0,0,1,0,94V2A2.157,2.157,0,0,1,2.286,0Z" transform="translate(1024 443)" fill="#121212"/>
        <path id="Trazado_7172_-_Contorno" data-name="Trazado 7172 - Contorno" d="M2.286,1A1.186,1.186,0,0,0,1,2V94a1.186,1.186,0,0,0,1.286,1H125.714A1.186,1.186,0,0,0,127,94V2a1.186,1.186,0,0,0-1.286-1H2.286m0-1H125.714A2.157,2.157,0,0,1,128,2V94a2.157,2.157,0,0,1-2.286,2H2.286A2.157,2.157,0,0,1,0,94V2A2.157,2.157,0,0,1,2.286,0Z" transform="translate(1024 443)" fill="rgba(255,255,255,0.12)"/>
        <path id="Trazado_7282" data-name="Trazado 7282" d="M2.286,0H125.714A2.157,2.157,0,0,1,128,2V94a2.157,2.157,0,0,1-2.286,2H2.286A2.157,2.157,0,0,1,0,94V2A2.157,2.157,0,0,1,2.286,0Z" transform="translate(1024 443)" fill="rgba(255,255,255,0.14)"/>
        <path id="Trazado_7282_-_Contorno" data-name="Trazado 7282 - Contorno" d="M2.286,1A1.186,1.186,0,0,0,1,2V94a1.186,1.186,0,0,0,1.286,1H125.714A1.186,1.186,0,0,0,127,94V2a1.186,1.186,0,0,0-1.286-1H2.286m0-1H125.714A2.157,2.157,0,0,1,128,2V94a2.157,2.157,0,0,1-2.286,2H2.286A2.157,2.157,0,0,1,0,94V2A2.157,2.157,0,0,1,2.286,0Z" transform="translate(1024 443)" fill="rgba(255,255,255,0.12)"/>
        <path id="Trazado_7283" data-name="Trazado 7283" d="M2.286,0H125.714A2.157,2.157,0,0,1,128,2V94a2.157,2.157,0,0,1-2.286,2H2.286A2.157,2.157,0,0,1,0,94V2A2.157,2.157,0,0,1,2.286,0Z" transform="translate(1024 443)" fill="rgba(20,100,165,0.06)"/>
        <path id="Trazado_7283_-_Contorno" data-name="Trazado 7283 - Contorno" d="M2.286,1A1.186,1.186,0,0,0,1,2V94a1.186,1.186,0,0,0,1.286,1H125.714A1.186,1.186,0,0,0,127,94V2a1.186,1.186,0,0,0-1.286-1H2.286m0-1H125.714A2.157,2.157,0,0,1,128,2V94a2.157,2.157,0,0,1-2.286,2H2.286A2.157,2.157,0,0,1,0,94V2A2.157,2.157,0,0,1,2.286,0Z" transform="translate(1024 443)" fill="rgba(255,255,255,0.12)"/>
      </g>
      <path id="Trazado_7110" data-name="Trazado 7110" d="M18947.141,195.755h-112a.755.755,0,1,1,0-1.51h112a.755.755,0,1,1,0,1.51Z" transform="translate(-17803.641 272)" fill="rgba(255,255,255,0.12)"/>
      <path id="Trazado_7111" data-name="Trazado 7111" d="M18875.145,195.755h-40a.755.755,0,1,1,0-1.51h40a.755.755,0,1,1,0,1.51Z" transform="translate(-17802.645 261.5)" fill="rgba(255,255,255,0.74)"/>
      <g id="item_3" data-name="item 3" transform="translate(1047.283 537)">
        <path id="Trazado_7084" data-name="Trazado 7084" d="M18875.145,195.755h-40a.755.755,0,1,1,0-1.51h40a.755.755,0,1,1,0,1.51Z" transform="translate(-18849.428 -240)" fill="rgba(255,255,255,0.74)"/>
      </g>
      <g id="item_3-2" data-name="item 3" transform="translate(1095.283 537)">
        <path id="Trazado_7084-2" data-name="Trazado 7084" d="M18875.145,195.755h-40a.755.755,0,1,1,0-1.51h40a.755.755,0,1,1,0,1.51Z" transform="translate(-18849.428 -240)" fill="rgba(255,255,255,0.74)"/>
      </g>
      <g id="item_3-3" data-name="item 3" transform="translate(1047.283 550)">
        <path id="Trazado_7084-3" data-name="Trazado 7084" d="M18855.141,195.755h-20a.755.755,0,1,1,0-1.51h20a.755.755,0,1,1,0,1.51Z" transform="translate(-18849.424 -240)" fill="rgba(255,255,255,0.74)"/>
      </g>
      <g id="item_3-4" data-name="item 3" transform="translate(1077.283 550)">
        <path id="Trazado_7084-4" data-name="Trazado 7084" d="M18855.141,195.755h-20a.755.755,0,1,1,0-1.51h20a.755.755,0,1,1,0,1.51Z" transform="translate(-18849.424 -240)" fill="rgba(255,255,255,0.74)"/>
      </g>
      <g id="item_3-5" data-name="item 3" transform="translate(1108.283 550)">
        <path id="Trazado_7084-5" data-name="Trazado 7084" d="M18855.141,195.755h-20a.755.755,0,1,1,0-1.51h20a.755.755,0,1,1,0,1.51Z" transform="translate(-18849.424 -240)" fill="rgba(255,255,255,0.74)"/>
      </g>
      <g id="item_3-6" data-name="item 3" transform="translate(1138.283 550)">
        <path id="Trazado_7084-6" data-name="Trazado 7084" d="M18855.141,195.755h-20a.755.755,0,1,1,0-1.51h20a.755.755,0,1,1,0,1.51Z" transform="translate(-18849.424 -240)" fill="rgba(255,255,255,0.74)"/>
      </g>
      <g id="item_3-7" data-name="item 3" transform="translate(1047.283 563)">
        <path id="Trazado_7084-7" data-name="Trazado 7084" d="M18875.141,195.755h-40a.755.755,0,1,1,0-1.51h40a.755.755,0,1,1,0,1.51Z" transform="translate(-18849.424 -240)" fill="rgba(255,255,255,0.74)"/>
      </g>
      <path id="Trazado_7274" data-name="Trazado 7274" d="M18847.145,195.755h-12a.755.755,0,1,1,0-1.51h12a.755.755,0,1,1,0,1.51Z" transform="translate(-17802.145 305)" fill="rgba(255,255,255,0.6)"/>
      <path id="Trazado_7277" data-name="Trazado 7277" d="M18847.145,195.755h-12a.755.755,0,1,1,0-1.51h12a.755.755,0,1,1,0,1.51Z" transform="translate(-17802.145 318)" fill="rgba(255,255,255,0.6)"/>
      <path id="Trazado_7275" data-name="Trazado 7275" d="M18847.145,195.755h-12a.755.755,0,1,1,0-1.51h12a.755.755,0,1,1,0,1.51Z" transform="translate(-17772.145 305)" fill="rgba(255,255,255,0.6)"/>
      <path id="Trazado_7276" data-name="Trazado 7276" d="M18847.145,195.755h-12a.755.755,0,1,1,0-1.51h12a.755.755,0,1,1,0,1.51Z" transform="translate(-17711.145 305)" fill="rgba(255,255,255,0.6)"/>
    </g>
    <g id="close_black_24dp_1_" data-name="close_black_24dp (1)" transform="translate(503 476)">
      <path id="Trazado_7236" data-name="Trazado 7236" d="M0,0H10V10H0Z" fill="none"/>
      <path id="Trazado_7237" data-name="Trazado 7237" d="M10.669,5.571,10.1,5,7.834,7.264,5.571,5,5,5.571,7.264,7.834,5,10.1l.571.571L7.834,8.405,10.1,10.669l.571-.571L8.405,7.834Z" transform="translate(-2.834 -2.834)" fill="rgba(255,255,255,0.6)"/>
    </g>
    <g id="Botones" transform="translate(-580 -20)">
      <rect id="Rectángulo_6435" data-name="Rectángulo 6435" width="24" height="8" rx="1" transform="translate(1069 519)" fill="rgba(0,0,0,0.12)"/>
      <path id="Rectángulo_6435_-_Contorno" data-name="Rectángulo 6435 - Contorno" d="M1,1V7H23V1H1M1,0H23a1,1,0,0,1,1,1V7a1,1,0,0,1-1,1H1A1,1,0,0,1,0,7V1A1,1,0,0,1,1,0Z" transform="translate(1069 519)" fill="rgba(255,255,255,0.74)"/>
      <path id="Trazado_7112" data-name="Trazado 7112" d="M18843.145,195.755h-8a.755.755,0,1,1,0-1.51h8a.755.755,0,1,1,0,1.51Z" transform="translate(-17758.145 328)" fill="rgba(255,255,255,0.74)"/>
    </g>
    <g id="Botones-2" data-name="Botones" transform="translate(-608 -20)">
      <rect id="Rectángulo_6435-2" data-name="Rectángulo 6435" width="24" height="8" rx="1" transform="translate(1069 519)" fill="rgba(0,0,0,0.12)"/>
      <path id="Rectángulo_6435_-_Contorno-2" data-name="Rectángulo 6435 - Contorno" d="M1,1V7H23V1H1M1,0H23a1,1,0,0,1,1,1V7a1,1,0,0,1-1,1H1A1,1,0,0,1,0,7V1A1,1,0,0,1,1,0Z" transform="translate(1069 519)" fill="rgba(255,255,255,0.6)"/>
      <path id="Trazado_7112-2" data-name="Trazado 7112" d="M18843.145,195.755h-8a.755.755,0,1,1,0-1.51h8a.755.755,0,1,1,0,1.51Z" transform="translate(-17758.145 328)" fill="rgba(255,255,255,0.6)"/>
    </g>
  </g>
</svg>
